<?xml version="1.0" encoding="UTF-8" standalone="no"?>
<!-- Generated by IcoMoon.io -->

<svg
   xmlns:dc="http://purl.org/dc/elements/1.1/"
   xmlns:cc="http://creativecommons.org/ns#"
   xmlns:rdf="http://www.w3.org/1999/02/22-rdf-syntax-ns#"
   xmlns:svg="http://www.w3.org/2000/svg"
   xmlns="http://www.w3.org/2000/svg"
   xmlns:sodipodi="http://sodipodi.sourceforge.net/DTD/sodipodi-0.dtd"
   xmlns:inkscape="http://www.inkscape.org/namespaces/inkscape"
   version="1.1"
   width="768"
   height="768"
   viewBox="0 0 768 768"
   id="svg2"
   inkscape:version="0.91 r13725"
   sodipodi:docname="cross (1).svg">
  <metadata
     id="metadata11">
    <rdf:RDF>
      <cc:Work
         rdf:about="">
        <dc:format>image/svg+xml</dc:format>
        <dc:type
           rdf:resource="http://purl.org/dc/dcmitype/StillImage" />
      </cc:Work>
    </rdf:RDF>
  </metadata>
  <defs
     id="defs9" />
  <sodipodi:namedview
     pagecolor="#ffffff"
     bordercolor="#666666"
     borderopacity="1"
     objecttolerance="10"
     gridtolerance="10"
     guidetolerance="10"
     inkscape:pageopacity="0"
     inkscape:pageshadow="2"
     inkscape:window-width="690"
     inkscape:window-height="480"
     id="namedview7"
     showgrid="false"
     inkscape:zoom="0.30729167"
     inkscape:cx="384"
     inkscape:cy="384"
     inkscape:window-x="0"
     inkscape:window-y="0"
     inkscape:window-maximized="0"
     inkscape:current-layer="svg2" />
  <g
     id="icomoon-ignore" />
  <path
     fill="#000"
     d="M608 128q13.75 0 22.875 9.125t9.125 22.875q0 13.5-9.25 22.75l-201.5 201.25 201.5 201.25q9.25 9.25 9.25 22.75 0 13.75-9.125 22.875t-22.875 9.125q-13.5 0-22.75-9.25l-201.25-201.5-201.25 201.5q-9.25 9.25-22.75 9.25-13.75 0-22.875-9.125t-9.125-22.875q0-13.5 9.25-22.75l201.5-201.25-201.5-201.25q-9.25-9.25-9.25-22.75 0-13.75 9.125-22.875t22.875-9.125q13.5 0 22.75 9.25l201.25 201.5 201.25-201.5q9.25-9.25 22.75-9.25z"
     id="path5"
     style="fill:#ffffff" />
</svg>
