<?xml version="1.0" encoding="UTF-8" standalone="no"?>
<!-- Generated by IcoMoon.io -->

<svg
   xmlns:dc="http://purl.org/dc/elements/1.1/"
   xmlns:cc="http://creativecommons.org/ns#"
   xmlns:rdf="http://www.w3.org/1999/02/22-rdf-syntax-ns#"
   xmlns:svg="http://www.w3.org/2000/svg"
   xmlns="http://www.w3.org/2000/svg"
   xmlns:sodipodi="http://sodipodi.sourceforge.net/DTD/sodipodi-0.dtd"
   xmlns:inkscape="http://www.inkscape.org/namespaces/inkscape"
   version="1.1"
   width="512"
   height="512"
   viewBox="0 0 512 512"
   id="svg4694"
   inkscape:version="0.91 r13725"
   sodipodi:docname="info.svg">
  <metadata
     id="metadata4707">
    <rdf:RDF>
      <cc:Work
         rdf:about="">
        <dc:format>image/svg+xml</dc:format>
        <dc:type
           rdf:resource="http://purl.org/dc/dcmitype/StillImage" />
      </cc:Work>
    </rdf:RDF>
  </metadata>
  <defs
     id="defs4705" />
  <sodipodi:namedview
     pagecolor="#ffffff"
     bordercolor="#666666"
     borderopacity="1"
     objecttolerance="10"
     gridtolerance="10"
     guidetolerance="10"
     inkscape:pageopacity="0"
     inkscape:pageshadow="2"
     inkscape:window-width="690"
     inkscape:window-height="480"
     id="namedview4703"
     showgrid="false"
     inkscape:zoom="0.4609375"
     inkscape:cx="256"
     inkscape:cy="256"
     inkscape:window-x="0"
     inkscape:window-y="0"
     inkscape:window-maximized="0"
     inkscape:current-layer="svg4694" />
  <g
     id="icomoon-ignore"
     style="fill:#4d4d4d" />
  <path
     d="M224 152c0-13.2 10.8-24 24-24h16c13.2 0 24 10.8 24 24v16c0 13.2-10.8 24-24 24h-16c-13.2 0-24-10.8-24-24v-16z"
     id="path4697"
     style="fill:#4d4d4d" />
  <path
     d="M320 384h-128v-32h32v-96h-32v-32h96v128h32z"
     id="path4699"
     style="fill:#4d4d4d" />
  <path
     d="M256 0c-141.385 0-256 114.615-256 256s114.615 256 256 256 256-114.615 256-256-114.615-256-256-256zM256 464c-114.875 0-208-93.125-208-208s93.125-208 208-208 208 93.125 208 208-93.125 208-208 208z"
     id="path4701"
     style="fill:#4d4d4d" />
</svg>
