<?xml version="1.0" encoding="UTF-8" standalone="no"?>
<!-- Generated by IcoMoon.io -->

<svg
   xmlns:dc="http://purl.org/dc/elements/1.1/"
   xmlns:cc="http://creativecommons.org/ns#"
   xmlns:rdf="http://www.w3.org/1999/02/22-rdf-syntax-ns#"
   xmlns:svg="http://www.w3.org/2000/svg"
   xmlns="http://www.w3.org/2000/svg"
   xmlns:sodipodi="http://sodipodi.sourceforge.net/DTD/sodipodi-0.dtd"
   xmlns:inkscape="http://www.inkscape.org/namespaces/inkscape"
   version="1.1"
   width="768"
   height="768"
   viewBox="0 0 768 768"
   id="svg7"
   sodipodi:docname="link-red.svg"
   inkscape:version="0.92.4 (f8dce91, 2019-08-02)">
  <metadata
     id="metadata13">
    <rdf:RDF>
      <cc:Work
         rdf:about="">
        <dc:format>image/svg+xml</dc:format>
        <dc:type
           rdf:resource="http://purl.org/dc/dcmitype/StillImage" />
        <dc:title></dc:title>
      </cc:Work>
    </rdf:RDF>
  </metadata>
  <defs
     id="defs11" />
  <sodipodi:namedview
     pagecolor="#ffffff"
     bordercolor="#666666"
     borderopacity="1"
     objecttolerance="10"
     gridtolerance="10"
     guidetolerance="10"
     inkscape:pageopacity="0"
     inkscape:pageshadow="2"
     inkscape:window-width="723"
     inkscape:window-height="480"
     id="namedview9"
     showgrid="false"
     inkscape:zoom="0.30729167"
     inkscape:cx="384"
     inkscape:cy="384"
     inkscape:window-x="0"
     inkscape:window-y="27"
     inkscape:window-maximized="0"
     inkscape:current-layer="svg7" />
  <g
     id="icomoon-ignore" />
  <path
     fill="#000"
     d="M544.5 223.5q66 0 112.5 47.25t46.5 113.25-46.5 113.25-112.5 47.25h-129v-61.5h129q40.5 0 69.75-29.25t29.25-69.75-29.25-69.75-69.75-29.25h-129v-61.5h129zM256.5 415.5v-63h255v63h-255zM124.5 384q0 40.5 29.25 69.75t69.75 29.25h129v61.5h-129q-66 0-112.5-47.25t-46.5-113.25 46.5-113.25 112.5-47.25h129v61.5h-129q-40.5 0-69.75 29.25t-29.25 69.75z"
     id="path5"
     style="fill:#a30000;fill-opacity:1" />
</svg>
