<?xml version="1.0"?>
<!--Icons from directory ""-->
<svg xmlns="http://www.w3.org/2000/svg" width="320" height="960" viewBox="0 0 320 960"><svg height="320" width="320" viewBox="-10 -10 532 532" id="github" y="0"><path d="M511.994 256c0 141.387-114.607 255.988-256.004 255.988C114.613 511.988.006 397.387.006 256 .006 114.619 114.606.012 255.998.012 397.379.012 511.994 114.619 511.994 256z" fill="#3C3C3C"/><path d="M173.719 267.975l-45.68.695-13.988 2.391 8.863 8.867-4.77 2.266 64.465 64.477-1.867 1.875 50.475 50.482-2.141 2.367-11.39 4.055 99.202 99.195c96.826-23.633 172.027-102.305 190.613-201.021L347.638 143.758 188.055 277.959l-14.336-9.984z" opacity=".2"/><path d="M416.918 271.068l.273-2.773a294.206 294.206 0 0 0-49.93-.539c2.625-8.258 3.992-17.584 3.891-28.186-.211-22.547-7.813-40.086-19.757-54.656 2.304-13.727.586-27.438-3.758-41.156-17.078 1.375-32.444 6.891-46.124 16.508-25.578-5.141-51.141-5.461-76.727-.008-15.96-10.641-31.632-15.867-47.053-16.5-4.578 15.102-5.281 30.008-1.43 44.648-13.445 14.117-18.594 31.258-18.336 50.227.133 10.875 1.836 20.529 4.953 29.076a291.282 291.282 0 0 0-49.129.594l.258 2.758c16.91-1.617 33.707-1.75 50.012-.484a83.303 83.303 0 0 0 1.891 4.242c-17.672-.461-33.594 1.055-48.48 4.672l.672 2.703c15.121-3.664 31.324-5.141 49.418-4.539 11.953 21.008 34.983 33.352 68.529 37.266-7.805 6.242-11.984 13.633-13.054 21.984h-17.758c-23.866-.008-30.374-30.07-55.085-27.102 23.969 11.758 19.195 49.297 57.546 49.297 12.891.008 15.641.008 16.109.008v34.404c.18 5.57-2.273 9.289-6.227 11.867 13.726 1.375 24.062-5.398 24.062-13.727v-45.475c0-4.07 4.297-4.383 4.297-4.383v53.107c.164 5.305-2.43 8.313-5.188 11.18 12.109.469 23.492-1.914 24-12.102l.008-50.834c0-2.547 4.234-2.617 4.234 0v48.451c.125 8.586 7.617 15.563 23.516 14.484-4.227-3.398-5.547-6.805-5.547-11.758v-52.529s4.383-.219 4.383 4.383v44.279c0 9.875 11.984 13.953 25.656 13.555-4.469-3.313-7.531-7.273-7.531-12.555v-53.279c-.477-7.828-3.688-15.234-10.016-22.094 30.655-4.656 52.756-16.766 63.764-38.43 18.156-.617 34.398.859 49.586 4.547l.664-2.711c-15.023-3.641-31.07-5.164-48.922-4.68.625-1.375 1.242-2.742 1.758-4.195 16.502-1.31 33.486-1.177 50.572.455zm-255.996 43.211c-.758 0-1.383-.43-1.383-.938 0-.531.625-.961 1.383-.961.742 0 1.367.43 1.367.961 0 .516-.625.938-1.367.938zm4.281 2.907c-.82 0-1.516-.469-1.516-1.07 0-.578.688-1.047 1.516-1.047.836 0 1.508.469 1.508 1.055.008.593-.664 1.062-1.508 1.062zm4.36 3.757c-.984 0-1.766-.555-1.766-1.234 0-.711.766-1.266 1.766-1.266.984 0 1.781.563 1.781 1.258s-.797 1.242-1.781 1.242zm4.242 4.508c-1.148 0-2.086-.648-2.086-1.453s.938-1.445 2.086-1.445c1.141 0 2.086.641 2.086 1.453 0 .805-.946 1.453-2.086 1.445zm4.648 5.117c-1.266 0-2.305-.734-2.305-1.625s1.039-1.625 2.305-1.625c1.297 0 2.328.734 2.328 1.633 0 .883-1.031 1.617-2.328 1.617zm5.406 5.188c-1.414 0-2.555-.813-2.563-1.797.008-1.008 1.148-1.813 2.563-1.813 1.43 0 2.563.813 2.578 1.813-.015.984-1.14 1.789-2.578 1.797zm7.305 4.922c-1.57.008-2.852-.891-2.852-2-.008-1.109 1.281-2 2.852-2 1.577 0 2.851.891 2.851 2s-1.274 2-2.851 2zm9.054 2.648c-1.563 0-2.867-.906-2.867-2.008 0-1.094 1.305-2.008 2.867-2.008 1.57 0 2.867.906 2.867 2.008s-1.297 2.008-2.867 2.008zm9.547.289c-1.578-.008-2.859-.891-2.859-1.984 0-1.125 1.281-2.016 2.859-2.016s2.836.891 2.836 2.016c0 1.094-1.258 1.976-2.836 1.984zm9.422.188c-1.563.008-2.852-.891-2.852-2.008 0-1.094 1.273-1.992 2.852-2 1.57.008 2.852.898 2.852 2-.001 1.117-1.282 2.008-2.852 2.008z" fill="#F4F6F9"/></svg><svg height="320" width="320" viewBox="-10 -10 532 532" id="linkedin" y="320"><path d="M511.994 256.008c0 141.379-114.607 255.98-255.996 255.98C114.613 511.988.006 397.387.006 256 .006 114.611 114.613.012 255.998.012c141.389 0 255.996 114.599 255.996 255.996z" fill="#007CB8"/><path d="M280.373 211.672l-6.984 6.984-84.365-84.367-45.727 45.719 45.328 45.32-50.602 163.41L261.13 511.855c109.311-2.156 201.794-72.766 236.332-170.771L380.645 224.273l-76.49 11.188-23.782-23.789z" opacity=".1"/><path d="M197.569 155.898c0 18.047-14.515 32.664-32.421 32.664-17.891 0-32.406-14.617-32.406-32.656 0-18.023 14.516-32.646 32.406-32.646 17.907 0 32.421 14.623 32.421 32.638zm-4.742 55.844h-54.819l.016 176.996 54.804-.008V211.742zm87.609 0h-52.563V388.73l52.563.008v-92.904c.008-24.891 11.461-39.703 33.398-39.703 20.155 0 29.851 14.219 29.851 39.703v92.896h54.538V276.677c0-47.436-26.875-70.334-64.429-70.334s-53.358 29.25-53.358 29.25v-23.851z" fill="#F4F6F9"/></svg><svg height="320" width="320" viewBox="-10 -10 532 532" id="twitter" y="640"><path d="M511.994 256c0 141.387-114.6 255.996-255.988 255.996-141.4 0-256-114.609-256-255.996C.006 114.611 114.606.004 255.998.004 397.395.004 512.002 114.611 511.994 256z" fill="#00B7EB"/><path d="M185.563 250.859l-40.391 40.389 29.781 29.781-11.938 11.953 44.288 44.281-6.336 6.734-87.187-6.719 134.521 134.514c2.563.078 5.117.203 7.703.203 137.998 0 250.426-109.203 255.738-245.904L408.801 163.148 258.045 323.342l-72.482-72.483z" opacity=".1"/><path d="M417.191 187.797a125.25 125.25 0 0 1-35.758 9.797c12.852-7.703 22.719-19.906 27.367-34.445a124.73 124.73 0 0 1-39.516 15.102c-11.359-12.109-27.538-19.656-45.444-19.656-34.374 0-62.241 27.859-62.241 62.266 0 4.875.547 9.625 1.609 14.188-51.733-2.609-97.592-27.375-128.295-65.063-5.375 9.203-8.438 19.906-8.445 31.313.008 21.609 11 40.656 27.703 51.828a62.217 62.217 0 0 1-28.203-7.781v.766c0 30.186 21.461 55.342 49.938 61.092a63.06 63.06 0 0 1-16.398 2.156c-4.023 0-7.922-.375-11.719-1.094C155.719 333 178.711 351 205.929 351.5c-21.296 16.688-48.124 26.656-77.296 26.656-5.023-.016-9.98-.281-14.852-.875 27.555 17.67 60.266 27.998 95.421 27.998 114.506 0 177.099-94.904 177.099-177.215 0-2.672-.055-5.375-.164-8.047 12.148-8.783 22.703-19.751 31.054-32.22z" fill="#F4F6F9"/></svg></svg>
