<svg width="320" height="960" viewBox="0 0 320 960" fill="none" xmlns="http://www.w3.org/2000/svg">
<g clip-path="url(#clip0_616_26)">
<path d="M313.981 160C313.981 245.045 245.045 313.978 159.994 313.978C74.9552 313.978 6.01868 245.045 6.01868 160C6.01868 74.959 74.951 6.02246 159.999 6.02246C245.04 6.02246 313.981 74.959 313.981 160Z" fill="#3C3C3C"/>
<path d="M256.793 169.063L256.957 167.395C246.973 166.436 236.926 166.328 226.924 167.071C228.503 162.104 229.325 156.494 229.264 150.117C229.137 136.555 224.565 126.005 217.38 117.241C218.766 108.984 217.733 100.737 215.12 92.4858C204.847 93.3129 195.605 96.6308 187.376 102.415C171.991 99.3231 156.615 99.1307 141.225 102.411C131.625 96.0101 122.198 92.8666 112.922 92.4858C110.168 101.57 109.745 110.536 112.062 119.342C103.975 127.833 100.878 138.144 101.033 149.554C101.113 156.095 102.137 161.902 104.012 167.043C94.1691 166.329 84.2835 166.449 74.4607 167.4L74.6159 169.059C84.7873 168.086 94.8908 168.006 104.698 168.768C105.054 169.629 105.433 170.48 105.836 171.32C95.206 171.042 85.6288 171.954 76.6748 174.13L77.079 175.756C86.1744 173.552 95.9205 172.663 106.804 173.025C113.994 185.662 127.847 193.087 148.025 195.441C143.33 199.196 140.816 203.641 140.173 208.664H129.491C115.136 208.66 111.221 190.577 96.3572 192.363C110.775 199.435 107.903 222.015 130.971 222.015C138.725 222.02 140.379 222.02 140.661 222.02V242.714C140.769 246.064 139.294 248.301 136.915 249.852C145.172 250.679 151.389 246.605 151.389 241.595V214.242C151.389 211.794 153.973 211.605 153.973 211.605V243.549C154.072 246.74 152.512 248.55 150.853 250.274C158.136 250.556 164.983 249.123 165.289 242.995L165.294 212.418C165.294 210.886 167.841 210.844 167.841 212.418V241.561C167.916 246.726 172.422 250.923 181.985 250.273C179.443 248.23 178.649 246.18 178.649 243.201V211.605C178.649 211.605 181.285 211.473 181.285 214.241V240.875C181.285 246.815 188.494 249.268 196.718 249.028C194.029 247.036 192.188 244.654 192.188 241.477V209.429C191.901 204.72 189.969 200.266 186.163 196.139C204.602 193.339 217.896 186.055 224.517 173.024C235.438 172.652 245.208 173.54 254.343 175.759L254.743 174.128C245.706 171.938 236.054 171.022 225.316 171.313C225.692 170.486 226.063 169.664 226.373 168.79C236.299 168.002 246.515 168.082 256.793 169.063ZM102.81 195.055C102.354 195.055 101.978 194.796 101.978 194.491C101.978 194.171 102.354 193.913 102.81 193.913C103.256 193.913 103.632 194.171 103.632 194.491C103.632 194.801 103.256 195.055 102.81 195.055ZM105.385 196.803C104.892 196.803 104.473 196.521 104.473 196.16C104.473 195.812 104.887 195.53 105.385 195.53C105.888 195.53 106.292 195.812 106.292 196.165C106.297 196.521 105.893 196.803 105.385 196.803ZM108.008 199.063C107.416 199.063 106.946 198.729 106.946 198.321C106.946 197.893 107.406 197.56 108.008 197.56C108.6 197.56 109.079 197.898 109.079 198.316C109.079 198.734 108.6 199.063 108.008 199.063ZM110.559 201.775C109.869 201.775 109.305 201.385 109.305 200.901C109.305 200.417 109.869 200.032 110.559 200.032C111.246 200.032 111.814 200.417 111.814 200.906C111.814 201.39 111.245 201.78 110.559 201.775ZM113.355 204.853C112.594 204.853 111.969 204.411 111.969 203.875C111.969 203.339 112.594 202.898 113.355 202.898C114.135 202.898 114.755 203.339 114.755 203.88C114.755 204.411 114.135 204.853 113.355 204.853ZM116.607 207.973C115.756 207.973 115.07 207.484 115.065 206.892C115.07 206.286 115.756 205.802 116.607 205.802C117.467 205.802 118.149 206.291 118.158 206.892C118.149 207.484 117.472 207.969 116.607 207.973ZM121.001 210.934C120.056 210.939 119.285 210.398 119.285 209.731C119.281 209.064 120.056 208.528 121.001 208.528C121.949 208.528 122.716 209.064 122.716 209.731C122.716 210.398 121.949 210.934 121.001 210.934ZM126.447 212.527C125.507 212.527 124.722 211.982 124.722 211.319C124.722 210.661 125.507 210.111 126.447 210.111C127.391 210.111 128.171 210.656 128.171 211.319C128.171 211.982 127.391 212.527 126.447 212.527ZM132.189 212.701C131.24 212.696 130.47 212.165 130.47 211.507C130.47 210.831 131.24 210.295 132.189 210.295C133.139 210.295 133.895 210.831 133.895 211.507C133.895 212.165 133.139 212.696 132.189 212.701ZM137.857 212.814C136.917 212.818 136.141 212.278 136.141 211.606C136.141 210.948 136.907 210.408 137.857 210.403C138.801 210.408 139.572 210.943 139.572 211.606C139.572 212.278 138.801 212.814 137.857 212.814Z" fill="#F4F6F9"/>
<path d="M313.981 480.005C313.981 565.045 245.045 633.978 159.999 633.978C74.9552 633.978 6.01868 565.045 6.01868 480C6.01868 394.954 74.9552 326.022 159.999 326.022C245.045 326.022 313.981 394.954 313.981 480.005Z" fill="#007CB8"/>
<path d="M124.854 419.788C124.854 430.643 116.123 439.436 105.352 439.436C94.5907 439.436 85.8599 430.643 85.8599 419.793C85.8599 408.952 94.5913 400.156 105.352 400.156C116.123 400.156 124.854 408.952 124.854 419.788ZM122.001 453.379H89.0274L89.037 559.842L122.002 559.837V453.379H122.001ZM174.698 453.379H143.082V559.837L174.698 559.842V503.96C174.703 488.988 181.592 480.079 194.787 480.079C206.911 480.079 212.743 488.631 212.743 503.96V559.837H245.548V492.437C245.548 463.904 229.382 450.131 206.793 450.131C184.205 450.131 174.698 467.725 174.698 467.725V453.379Z" fill="#F4F6F9"/>
<path d="M313.981 800C313.981 885.045 245.049 953.983 160.004 953.983C74.951 953.983 6.01868 885.045 6.01868 800C6.01868 714.954 74.951 646.018 159.999 646.018C245.05 646.018 313.986 714.954 313.981 800Z" fill="#0886FE"/>
<path d="M104.692 735.788C127.079 752.553 151.159 786.548 160 804.791C168.841 786.549 192.92 752.553 215.308 735.788C231.461 723.69 257.633 714.329 257.633 744.115C257.633 750.063 254.214 794.086 252.209 801.233C245.239 826.08 219.841 832.418 197.248 828.582C236.739 835.287 246.786 857.496 225.09 879.705C183.885 921.884 165.867 869.122 161.248 855.602C160.401 853.124 160.005 851.964 159.999 852.95C159.994 851.964 159.597 853.124 158.751 855.602C154.134 869.122 136.116 921.886 94.909 879.705C73.2129 857.496 83.2587 835.285 122.75 828.582C100.157 832.418 74.7585 826.08 67.7895 801.233C65.7843 794.085 62.3655 750.063 62.3655 744.115C62.3655 714.329 88.5386 723.69 104.691 735.788H104.692Z" fill="white"/>
</g>
<defs>
<clipPath id="clip0_616_26">
<rect width="320" height="960" fill="white"/>
</clipPath>
</defs>
</svg>
