<?xml version="1.0" encoding="UTF-8" standalone="no"?>
<svg
   xmlns:dc="http://purl.org/dc/elements/1.1/"
   xmlns:cc="http://creativecommons.org/ns#"
   xmlns:rdf="http://www.w3.org/1999/02/22-rdf-syntax-ns#"
   xmlns:svg="http://www.w3.org/2000/svg"
   xmlns="http://www.w3.org/2000/svg"
   xmlns:sodipodi="http://sodipodi.sourceforge.net/DTD/sodipodi-0.dtd"
   xmlns:inkscape="http://www.inkscape.org/namespaces/inkscape"
   enable-background="new 0 0 512 512"
   id="Layer_1"
   version="1.1"
   viewBox="0 0 512 512"
   xml:space="preserve"
   inkscape:version="0.91 r13725"
   sodipodi:docname="instagram.svg"><metadata
     id="metadata19"><rdf:RDF><cc:Work
         rdf:about=""><dc:format>image/svg+xml</dc:format><dc:type
           rdf:resource="http://purl.org/dc/dcmitype/StillImage" /></cc:Work></rdf:RDF></metadata><defs
     id="defs17" /><sodipodi:namedview
     pagecolor="#ffffff"
     bordercolor="#666666"
     borderopacity="1"
     objecttolerance="10"
     gridtolerance="10"
     guidetolerance="10"
     inkscape:pageopacity="0"
     inkscape:pageshadow="2"
     inkscape:window-width="1855"
     inkscape:window-height="1056"
     id="namedview15"
     showgrid="false"
     inkscape:zoom="0.70710678"
     inkscape:cx="230.36344"
     inkscape:cy="437.08309"
     inkscape:window-x="65"
     inkscape:window-y="24"
     inkscape:window-maximized="1"
     inkscape:current-layer="Layer_1" /><g
     id="Layer_1_1_"
     transform="matrix(1.0746005,0,0,1.0746005,-19.07789,-19.07789)"><circle
       cx="256"
       cy="256"
       r="238.2"
       id="circle4"
       style="fill:#bc2a8d" /></g><g
     id="Layer_2_1_"
     transform="matrix(1.0746005,0,0,1.0746005,-19.07789,-19.07789)"><g
       id="g7"><path
         d="m 385.1,258 c 0,18.2 0,36.5 0,54.7 0,30.9 -15,52.3 -41.9,66.2 -11,5.7 -22.9,8.2 -35.3,8.2 -35.1,0 -70.3,0.6 -105.4,-0.2 -28.2,-0.6 -50.9,-13 -66.1,-37.3 -6.3,-10.2 -9.4,-21.4 -9.5,-33.3 0,-38.5 -0.2,-77.1 0,-115.6 0.2,-26.4 13.1,-45.9 35,-59.7 13,-8.1 27.4,-11.8 42.7,-11.9 34.2,0 68.3,-0.2 102.6,0 26.4,0.2 48.3,10.5 64.5,31.7 8.9,11.7 13.3,25.3 13.3,40.1 0.1,18.9 0.1,38 0.1,57.1 z m -19.2,0.2 c 0,-19.1 0,-38.4 0,-57.5 0,-10.4 -3.1,-19.9 -9.2,-28.1 -11.9,-16.1 -28.4,-24 -48.1,-24.2 -34.7,-0.4 -69.4,-0.1 -104.1,-0.1 -10.8,0 -21,2.5 -30.3,7.9 -18,10.4 -28,25.6 -27.9,46.8 0.1,37.3 0,74.8 0,112.2 0,10.5 3.1,20.1 9.3,28.4 11.9,16.1 28.4,23.9 48.1,24.1 34.9,0.4 69.8,0.1 104.6,0.1 7.9,0 15.6,-1.7 23,-4.7 19.6,-7.9 35.3,-26.2 34.7,-50.6 -0.5,-18.1 -0.1,-36.2 -0.1,-54.3 z"
         id="path9"
         inkscape:connector-curvature="0"
         style="fill:#ffffff" /><path
         d="m 256,313.1 c -33.7,-0.1 -60.6,-27 -60.5,-60.5 0.1,-32.7 27.5,-59.3 60.9,-59.2 33.4,0.1 60.5,27.1 60.4,60.2 0,32.9 -27.2,59.6 -60.8,59.5 z m 0.5,-100.5 c -22.9,0 -41.4,18.1 -41.6,40.5 0,22.3 18.5,40.6 41.1,40.7 22.9,0 41.6,-18.1 41.7,-40.4 0,-22.4 -18.5,-40.8 -41.2,-40.8 z"
         id="path11"
         inkscape:connector-curvature="0"
         style="fill:#ffffff" /><path
         d="m 336.7,188.5 c 0,7.3 -5.8,13.3 -12.9,13.2 -7,0 -12.7,-6.1 -12.6,-13.4 0,-7.2 5.8,-13.1 12.8,-13.1 7,0 12.7,6 12.7,13.3 z"
         id="path13"
         inkscape:connector-curvature="0"
         style="fill:#ffffff" /></g></g></svg>