<?xml version="1.0" ?><!DOCTYPE svg  PUBLIC '-//W3C//DTD SVG 1.1//EN'  'http://www.w3.org/Graphics/SVG/1.1/DTD/svg11.dtd'><svg enable-background="new 0 0 512 512" height="512px" id="Слой_1" version="1.1" viewBox="0 0 512 512" width="512px" xml:space="preserve" xmlns="http://www.w3.org/2000/svg" xmlns:xlink="http://www.w3.org/1999/xlink"><g id="tumblr_1_"><g><path d="M512,256c-0.016,141.387-114.615,255.98-255.996,255.988C114.619,511.98,0.012,397.387,0,256    C0,114.611,114.619,0.012,256.004,0.012C397.385,0.012,512,114.611,512,256z" fill="#104563"/><path d="M324.823,502.551c80.71-22.484,145.334-83.477,172.81-161.975l-230.41-230.41l-53.874,280.916    L324.823,502.551z" opacity="0.15"/></g><path d="M224.199,110.166c-1.937,15.633-5.476,28.506-10.601,38.615   c-5.125,10.125-11.922,18.789-20.398,26.016c-8.483,7.211-18.647,12.766-30.538,16.625v43.219h33.249l-0.008,106.334   c0,13.859,1.461,24.414,4.367,31.719c2.906,7.289,8.133,14.17,15.648,20.67c7.523,6.469,16.632,11.461,27.296,14.961   c10.656,3.5,22.93,5.242,36.797,5.242c12.211,0,23.586-1.227,34.102-3.68c10.507-2.453,22.257-6.711,35.233-12.82v-47.701   c-15.219,9.977-30.515,14.977-45.89,14.977c-8.641,0-16.328-2.023-23.039-6.039c-5.07-2.977-8.539-6.969-10.406-11.961   c-1.859-5-2.789-16.297-2.789-33.875v-77.826h72.101v-47.625h-72.101v-76.85H224.199z" fill="#F4F6F9" id="Tumblr_1_"/></g></svg>