<!-- Generated by IcoMoon.io -->
<svg version="1.1" xmlns="http://www.w3.org/2000/svg" width="768" height="768" viewBox="0 0 768 768">
<g id="icomoon-ignore">
</g>
<path fill="#000" d="M256.5 576l127.5-223.5h-64.5v-160.5l-127.5 240h64.5v144zM576 319.5q13.5 0 22.5-9t9-22.5-9-22.5-22.5-9-22.5 9-9 22.5 9 22.5 22.5 9zM633 231q22.5 22.5 22.5 57v304.5q0 33-23.25 56.25t-56.25 23.25-56.25-23.25-23.25-56.25v-160.5h-48v240h-321v-511.5q0-25.5 19.5-45t45-19.5h192q25.5 0 45 19.5t19.5 45v223.5h31.5q25.5 0 45 19.5t19.5 45v144q0 13.5 9 22.5t22.5 9 22.5-9 9-22.5v-231q-13.5 6-31.5 6-33 0-56.25-23.25t-23.25-56.25q0-54 51-75l-67.5-67.5 34.5-33z"></path>
</svg>
