<!-- Generated by IcoMoon.io -->
<svg version="1.1" xmlns="http://www.w3.org/2000/svg" width="768" height="768" viewBox="0 0 768 768">
<g id="icomoon-ignore">
</g>
<path fill="#000" d="M384 367.5q33 0 56.25-23.25t23.25-56.25-23.25-56.25-56.25-23.25-56.25 23.25-23.25 56.25 23.25 56.25 56.25 23.25zM384 64.5q93 0 158.25 65.25t65.25 158.25q0 46.5-23.25 106.5t-56.25 112.5-65.25 98.25-54.75 72.75l-24 25.5q-9-10.5-24-27.75t-54-69-68.25-100.5-53.25-110.25-24-108q0-93 65.25-158.25t158.25-65.25z"></path>
</svg>
