<svg width="593" height="396" viewBox="0 0 593 396" fill="none" xmlns="http://www.w3.org/2000/svg">
<g id="bullet-train">
<circle id="BackdropCircle" cx="395" cy="198" r="193" fill="#575757" stroke="#3D3B3B" stroke-width="10"/>
<mask id="mask0" mask-type="alpha" maskUnits="userSpaceOnUse" x="0" y="10" width="583" height="376">
<path id="Mask" d="M583 198C583 301.83 498.776 386 394.881 386H0V10C0 10 290.985 10 394.881 10C498.776 10 583 94.1705 583 198Z" fill="#575757"/>
</mask>
<g mask="url(#mask0)">
<g id="Tracks">
<path id="TrackBeam" d="M198.343 287.727C199.412 284.789 202.661 283.274 205.6 284.343L365.211 342.437C368.15 343.506 369.665 346.755 368.595 349.694C367.526 352.632 364.277 354.147 361.338 353.078L201.727 294.984C198.789 293.914 197.274 290.665 198.343 287.727Z" fill="#652E00"/>
<path id="TrackBeam_2" d="M296.343 260.727C297.412 257.789 300.661 256.274 303.6 257.343L463.211 315.437C466.15 316.506 467.665 319.755 466.595 322.694C465.526 325.632 462.277 327.147 459.338 326.078L299.727 267.984C296.789 266.914 295.274 263.665 296.343 260.727Z" fill="#652E00"/>
<path id="TrackBeam_3" d="M380.343 237.727C381.413 234.789 384.662 233.274 387.6 234.343L547.212 292.437C550.15 293.506 551.665 296.755 550.595 299.694C549.526 302.632 546.277 304.147 543.339 303.078L383.727 244.984C380.789 243.914 379.274 240.665 380.343 237.727Z" fill="#652E00"/>
</g>
<path id="TrackBeamShadow" d="M594.434 274.885C595.526 277.687 594.142 280.842 591.341 281.93L259.661 369.145C256.861 370.234 253.705 368.845 252.613 366.043C251.52 363.241 252.905 360.086 255.705 358.997L587.385 271.783C590.186 270.694 593.341 272.083 594.434 274.885Z" fill="black" fill-opacity="0.25"/>
<path id="TrackBeam_4" d="M586.434 272.319C587.526 275.122 586.142 278.276 583.341 279.365L251.661 366.58C248.861 367.669 245.705 366.28 244.613 363.477C243.52 360.675 244.905 357.521 247.705 356.432L579.385 269.217C582.186 268.128 585.341 269.517 586.434 272.319Z" fill="#472305"/>
<path id="TrainShadow" d="M585.504 226.252L585.504 245.24C585.504 245.24 581.569 257.779 578.318 265.531C566.904 268.913 311 335.608 290 339.5C245.165 347.81 172.924 361.067 172.924 361.067C172.924 361.067 113.437 372.716 76.9659 364.026C63.203 360.747 55.3451 358.586 42.7252 352.19C40.0364 350.827 37.1626 348.793 34.2837 346.408C31.3091 346.135 28.6999 345.633 26.6007 344.808C17.2015 341.117 11.9999 337.5 7.15537 331.818C2.3108 326.135 3.1185 320 7.57811 311.527C11.2025 304.64 17.087 299.529 21.887 295.36C22.5982 294.742 23.2856 294.145 23.9383 293.566C24.2689 293.24 24.6125 292.914 24.9708 292.586C25.5065 292.095 25.9809 291.679 26.4065 291.322C29.5528 288.448 29.9439 288.164 32.8614 286.048C33.2407 285.773 33.6626 285.467 34.1389 285.12C34.1824 285.073 34.2264 285.025 34.2708 284.976C35.9431 283.152 39.5292 279.14 43.9278 274.22C51.7595 265.459 62.1669 253.817 68.9342 246.508C79.5023 235.095 95.1294 221.276 113.32 206.772C115.08 205.369 116.766 204.021 118.394 202.72L118.398 202.717C132.602 191.359 142.411 183.515 158.975 172.954C174.254 163.212 186.029 156.046 199.133 150.973C208.413 147.381 214.462 146.148 221.741 144.664C224.742 144.052 227.952 143.398 231.683 142.518C253.458 137.384 265.846 135.253 287.906 131.527C309.965 127.802 348.355 124.763 369.069 125.186C389.782 125.609 412.187 129.414 412.187 129.414L585.504 158.159L585.504 214.806L585.525 214.804V226.25L585.504 226.252Z" fill="black" fill-opacity="0.25"/>
<g id="Train">
<path id="TrainBottom" d="M583.318 255.531C586.569 247.779 590.504 235.24 590.504 235.24V228.054C573.877 230.449 540.031 235.24 537.663 235.24C535.296 235.24 470.732 248.767 438.746 255.531L200.329 301.608L91.2659 326.126L16.0001 311.5C16.0001 311.5 34.2021 335.336 47.7252 342.19C60.3451 348.586 68.203 350.747 81.9659 354.026C118.437 362.716 177.924 351.067 177.924 351.067C177.924 351.067 250.165 337.81 295 329.5C316 325.608 571.904 258.913 583.318 255.531Z" fill="#C4C4C4"/>
<path id="TrainBody" d="M590.504 148.159V235.24L400.278 269.481L205.402 311.331L120.857 327.394L77.7387 331.199C77.7387 331.199 66.3251 332.044 55.3343 332.044C48.3831 332.044 40.9615 331.199 37.5799 330.776C34.1982 330.354 27.0116 326.549 25.3209 325.704C24.2302 325.158 18.9801 321.476 18.1345 319.785C17.289 318.094 16.4435 316.826 16.0209 312.599C16.0209 307.949 15.5981 306.681 18.5573 299.494C22.7845 291.463 24.8981 287.236 29.9708 282.586C35.0435 277.935 34.6208 280.049 39.2708 274.976C43.9207 269.903 63.3661 247.922 73.9342 236.508C84.5023 225.095 100.129 211.276 118.32 196.772C135.441 183.122 145.512 174.726 163.975 162.954C179.254 153.212 191.029 146.046 204.133 140.973C217.238 135.9 223.9 135.532 236.683 132.518C258.458 127.384 270.846 125.253 292.906 121.527C314.965 117.802 353.355 114.763 374.069 115.186C394.782 115.609 417.187 119.414 417.187 119.414L590.504 148.159Z" fill="white"/>
<path id="TrainWindow" d="M285.976 185.13C285.976 185.13 253.674 199.793 231.868 205.807C210.061 211.822 194.412 212.364 170.15 213.452C149.034 214.399 116.041 212.184 116.041 212.184C109.277 212.184 100.879 206.151 118 192.5C135.121 178.85 145.037 171.272 163.5 159.5C178.78 149.757 191.863 143.817 204.968 138.744C218.072 133.671 224.717 132.014 237.5 129C259.275 123.866 270.5 125.938 285.976 127C285.976 127 313.5 128.954 319.794 135.248C326.089 141.543 327.477 148.157 319.794 161.5C312.112 174.843 285.976 185.13 285.976 185.13Z" fill="#2E2E2E"/>
<path id="Stripe" d="M590.525 204.804V216.25L478.503 228.931C478.503 228.931 472.584 231.045 470.471 233.581C450.761 257.233 400.298 269.513 400.298 269.513L205.422 311.363C205.422 311.363 139 324.657 123 328.5C108.122 332.073 94.3785 333.881 77.4999 334.808C60.6213 335.736 40.9999 338.5 31.6007 334.808C22.2015 331.117 16.9999 327.5 12.1554 321.818C7.3108 316.135 8.1185 310 12.5781 301.527C17.0377 293.053 24.919 287.268 29.9917 282.618C35.0644 277.968 34.5001 278.5 39.2916 275.009C23.228 301.64 24.4962 317.704 38.4461 323.622C52.396 329.54 94.6685 307.558 123.837 286.422C142.359 273 207.5 246 229.94 239.077C242.934 235.068 279.378 227.631 302.226 225.55L590.525 204.804Z" fill="#D80000"/>
<g id="Windows">
<rect id="Rectangle 6" x="494.545" y="172.677" width="10.9908" height="27.8998" rx="5.49542" fill="#2E2E2E"/>
<rect id="Rectangle 7" x="518.218" y="173.522" width="9.29994" height="26.2089" rx="4.64997" fill="#2E2E2E"/>
<rect id="Rectangle 8" x="540.199" y="174.368" width="9.29994" height="24.518" rx="4.64997" fill="#2E2E2E"/>
<rect id="Rectangle 9" x="562.181" y="175.213" width="7.60905" height="22.8271" rx="3.80452" fill="#2E2E2E"/>
<rect id="Rectangle 5" x="470.873" y="171.832" width="10.9908" height="29.5907" rx="5.49542" fill="#2E2E2E"/>
</g>
</g>
</g>
</g>
</svg>
