<svg width="586" height="382" viewBox="0 0 586 382" fill="none" xmlns="http://www.w3.org/2000/svg">
<g id="BulletTrain">
<circle id="BackdropCircle" cx="395" cy="191" r="189.5" fill="#575757" stroke="#575757" stroke-width="3"/>
<mask id="mask0" mask-type="alpha" maskUnits="userSpaceOnUse" x="0" y="3" width="583" height="376">
<path id="Mask" d="M583 191C583 294.83 498.776 379 394.881 379H0V3C0 3 290.985 3 394.881 3C498.776 3 583 87.1705 583 191Z" fill="#575757"/>
</mask>
<g mask="url(#mask0)">
<path id="TrainShadow" d="M585.504 219.252L585.504 238.24C585.504 238.24 581.569 250.779 578.318 258.531C566.904 261.913 311 328.608 290 332.5C245.165 340.81 172.924 354.067 172.924 354.067C172.924 354.067 113.437 365.716 76.9659 357.026C63.203 353.747 55.3451 351.586 42.7252 345.19C40.0364 343.827 37.1626 341.793 34.2837 339.408C31.3091 339.135 28.6999 338.633 26.6007 337.808C17.2015 334.117 11.9999 330.5 7.15537 324.818C2.3108 319.135 3.1185 313 7.57811 304.527C11.2025 297.64 17.087 292.529 21.887 288.36C22.5982 287.742 23.2856 287.145 23.9383 286.566C24.2689 286.24 24.6125 285.914 24.9708 285.586C25.5065 285.095 25.9809 284.679 26.4065 284.322C29.5528 281.448 29.9439 281.164 32.8614 279.048C33.2407 278.773 33.6626 278.467 34.1389 278.12C34.1824 278.073 34.2264 278.025 34.2708 277.976C35.9431 276.152 39.5292 272.14 43.9278 267.22C51.7595 258.459 62.1669 246.817 68.9342 239.508C79.5023 228.095 95.1294 214.276 113.32 199.772C115.08 198.369 116.766 197.021 118.394 195.72L118.398 195.717C132.602 184.359 142.411 176.515 158.975 165.954C174.254 156.212 186.029 149.046 199.133 143.973C208.413 140.381 214.462 139.148 221.741 137.664C224.742 137.052 227.952 136.398 231.683 135.518C253.458 130.384 265.846 128.253 287.906 124.527C309.965 120.802 348.355 117.763 369.069 118.186C389.782 118.609 412.187 122.414 412.187 122.414L585.504 151.159L585.504 207.806L585.525 207.804V219.25L585.504 219.252Z" fill="black" fill-opacity="0.25"/>
<g id="Train">
<path id="Train Bottom" d="M583.318 248.531C586.569 240.779 590.504 228.24 590.504 228.24V221.054C573.877 223.449 540.031 228.24 537.663 228.24C535.296 228.24 470.732 241.767 438.746 248.531L200.329 294.608L91.2659 319.126L16.0001 304.5C16.0001 304.5 34.2021 328.336 47.7252 335.19C60.3451 341.586 68.203 343.747 81.9659 347.026C118.437 355.716 177.924 344.067 177.924 344.067C177.924 344.067 250.165 330.81 295 322.5C316 318.608 571.904 251.913 583.318 248.531Z" fill="#C4C4C4"/>
<path id="Train Body" d="M590.504 141.159V228.24L400.278 262.481L205.402 304.331L120.857 320.394L77.7387 324.199C77.7387 324.199 66.3251 325.044 55.3343 325.044C48.3831 325.044 40.9615 324.199 37.5799 323.776C34.1982 323.354 27.0116 319.549 25.3209 318.704C24.2302 318.158 18.9801 314.476 18.1345 312.785C17.289 311.094 16.4435 309.826 16.0209 305.599C16.0209 300.949 15.5981 299.681 18.5573 292.494C22.7845 284.463 24.8981 280.236 29.9708 275.586C35.0435 270.935 34.6208 273.049 39.2708 267.976C43.9207 262.903 63.3661 240.922 73.9342 229.508C84.5023 218.095 100.129 204.276 118.32 189.772C135.441 176.122 145.512 167.726 163.975 155.954C179.254 146.212 191.029 139.046 204.133 133.973C217.238 128.9 223.9 128.532 236.683 125.518C258.458 120.384 270.846 118.253 292.906 114.527C314.965 110.802 353.355 107.763 374.069 108.186C394.782 108.609 417.187 112.414 417.187 112.414L590.504 141.159Z" fill="white"/>
<path id="Train Window" d="M285.976 178.13C285.976 178.13 253.674 192.793 231.868 198.807C210.061 204.822 194.412 205.364 170.15 206.452C149.034 207.399 116.041 205.184 116.041 205.184C109.277 205.184 100.879 199.151 118 185.5C135.121 171.85 145.037 164.272 163.5 152.5C178.78 142.757 191.863 136.817 204.968 131.744C218.072 126.671 224.717 125.014 237.5 122C259.275 116.866 270.5 118.938 285.976 120C285.976 120 313.5 121.954 319.794 128.248C326.089 134.543 327.477 141.157 319.794 154.5C312.112 167.843 285.976 178.13 285.976 178.13Z" fill="#2E2E2E"/>
<path id="Stripe" d="M590.525 197.804V209.25L478.503 221.931C478.503 221.931 472.584 224.045 470.471 226.581C450.761 250.233 400.298 262.513 400.298 262.513L205.422 304.363C205.422 304.363 139 317.657 123 321.5C108.122 325.073 94.3785 326.881 77.4999 327.808C60.6213 328.736 40.9999 331.5 31.6007 327.808C22.2015 324.117 16.9999 320.5 12.1554 314.818C7.3108 309.135 8.1185 303 12.5781 294.527C17.0377 286.053 24.919 280.268 29.9917 275.618C35.0644 270.968 34.5001 271.5 39.2916 268.009C23.228 294.64 24.4962 310.704 38.4461 316.622C52.396 322.54 94.6685 300.558 123.837 279.422C142.359 266 207.5 239 229.94 232.077C242.934 228.068 279.378 220.631 302.226 218.55L590.525 197.804Z" fill="#D80000"/>
<g id="Windows">
<rect id="Rectangle 6" x="494.545" y="165.677" width="10.9908" height="27.8998" rx="5.49542" fill="#2E2E2E"/>
<rect id="Rectangle 7" x="518.218" y="166.522" width="9.29994" height="26.2089" rx="4.64997" fill="#2E2E2E"/>
<rect id="Rectangle 8" x="540.199" y="167.368" width="9.29994" height="24.518" rx="4.64997" fill="#2E2E2E"/>
<rect id="Rectangle 9" x="562.181" y="168.213" width="7.60905" height="22.8271" rx="3.80452" fill="#2E2E2E"/>
<rect id="Rectangle 5" x="470.873" y="164.832" width="10.9908" height="29.5907" rx="5.49542" fill="#2E2E2E"/>
</g>
</g>
</g>
</g>
</svg>
