<svg width="393" height="333" viewBox="0 0 393 333" fill="none" xmlns="http://www.w3.org/2000/svg">
<g id="MoonAndStars">
<g id="Stars">
<path id="Star7" d="M73.0446 17.1061C73.497 14.9993 76.503 14.9993 76.9554 17.1061L77.3802 19.0843C77.5454 19.8536 78.1464 20.4546 78.9157 20.6198L80.8939 21.0446C83.0007 21.497 83.0007 24.503 80.8939 24.9554L78.9157 25.3802C78.1464 25.5454 77.5454 26.1464 77.3802 26.9157L76.9554 28.8939C76.503 31.0007 73.497 31.0007 73.0446 28.8939L72.6198 26.9157C72.4546 26.1464 71.8536 25.5454 71.0843 25.3802L69.1061 24.9554C66.9993 24.503 66.9993 21.497 69.1061 21.0446L71.0843 20.6198C71.8536 20.4546 72.4546 19.8536 72.6198 19.0843L73.0446 17.1061Z" fill="#FDFDFD"/>
<path id="Star6" d="M17.5446 138.106C17.997 135.999 21.003 135.999 21.4554 138.106L22.6757 143.789C22.8409 144.558 23.4419 145.159 24.2112 145.324L29.8939 146.545C32.0007 146.997 32.0007 150.003 29.8939 150.455L24.2112 151.676C23.4419 151.841 22.8409 152.442 22.6757 153.211L21.4554 158.894C21.003 161.001 17.997 161.001 17.5446 158.894L16.3243 153.211C16.1591 152.442 15.5581 151.841 14.7888 151.676L9.10613 150.455C6.99933 150.003 6.99933 146.997 9.10613 146.545L14.7888 145.324C15.5581 145.159 16.1591 144.558 16.3243 143.789L17.5446 138.106Z" fill="#FDFDFD"/>
<path id="Star5" d="M281.545 311.106C281.997 308.999 285.003 308.999 285.455 311.106L285.969 313.496C286.134 314.265 286.735 314.866 287.504 315.031L289.894 315.545C292.001 315.997 292.001 319.003 289.894 319.455L287.504 319.969C286.735 320.134 286.134 320.735 285.969 321.504L285.455 323.894C285.003 326.001 281.997 326.001 281.545 323.894L281.031 321.504C280.866 320.735 280.265 320.134 279.496 319.969L277.106 319.455C274.999 319.003 274.999 315.997 277.106 315.545L279.496 315.031C280.265 314.866 280.866 314.265 281.031 313.496L281.545 311.106Z" fill="#FDFDFD"/>
<path id="Star4" d="M63.5269 258.909C63.8965 256.679 67.1035 256.679 67.4731 258.909L67.7533 260.601C67.8932 261.445 68.555 262.107 69.3995 262.247L71.0906 262.527C73.3214 262.896 73.3214 266.104 71.0906 266.473L69.3995 266.753C68.555 266.893 67.8932 267.555 67.7533 268.399L67.4731 270.091C67.1035 272.321 63.8965 272.321 63.5269 270.091L63.2467 268.399C63.1068 267.555 62.445 266.893 61.6005 266.753L59.9094 266.473C57.6786 266.104 57.6786 262.896 59.9094 262.527L61.6005 262.247C62.445 262.107 63.1068 261.445 63.2467 260.601L63.5269 258.909Z" fill="#FDFDFD"/>
<path id="Star3" d="M205.545 299.106C205.997 296.999 209.003 296.999 209.455 299.106L210.322 303.142C210.487 303.912 211.088 304.513 211.858 304.678L215.894 305.545C218.001 305.997 218.001 309.003 215.894 309.455L211.858 310.322C211.088 310.487 210.487 311.088 210.322 311.858L209.455 315.894C209.003 318.001 205.997 318.001 205.545 315.894L204.678 311.858C204.513 311.088 203.912 310.487 203.142 310.322L199.106 309.455C196.999 309.003 196.999 305.997 199.106 305.545L203.142 304.678C203.912 304.513 204.513 303.912 204.678 303.142L205.545 299.106Z" fill="#FDFDFD"/>
<path id="Star2" d="M368.545 197.106C368.997 194.999 372.003 194.999 372.455 197.106L374.206 205.258C374.371 206.028 374.972 206.629 375.742 206.794L383.894 208.545C386.001 208.997 386.001 212.003 383.894 212.455L375.742 214.206C374.972 214.371 374.371 214.972 374.206 215.742L372.455 223.894C372.003 226.001 368.997 226.001 368.545 223.894L366.794 215.742C366.629 214.972 366.028 214.371 365.258 214.206L357.106 212.455C354.999 212.003 354.999 208.997 357.106 208.545L365.258 206.794C366.028 206.629 366.629 206.028 366.794 205.258L368.545 197.106Z" fill="#FDFDFD"/>
<path id="Star1" d="M340.045 9.10613C340.497 6.99933 343.503 6.99933 343.955 9.10612L344.557 11.9075C344.722 12.6768 345.323 13.2778 346.093 13.443L348.894 14.0446C351.001 14.497 351.001 17.503 348.894 17.9554L346.093 18.557C345.323 18.7222 344.722 19.3232 344.557 20.0925L343.955 22.8939C343.503 25.0007 340.497 25.0007 340.045 22.8939L339.443 20.0925C339.278 19.3232 338.677 18.7222 337.907 18.557L335.106 17.9554C332.999 17.503 332.999 14.497 335.106 14.0446L337.907 13.443C338.677 13.2778 339.278 12.6768 339.443 11.9075L340.045 9.10613Z" fill="#FDFDFD"/>
</g>
<g id="MoonOnly">
<circle id="Moon Back" cx="208.5" cy="142.5" r="107.5" fill="#FCF8F8"/>
<path id="MoonShadow" fill-rule="evenodd" clip-rule="evenodd" d="M279.701 223.35C302.167 203.647 316.35 174.73 316.35 142.5C316.35 83.1294 268.221 35 208.85 35C176.62 35 147.703 49.1837 128 71.6496C146.918 55.0579 171.71 45 198.85 45C258.221 45 306.35 93.1294 306.35 152.5C306.35 179.641 296.293 204.432 279.701 223.35Z" fill="#D7D7D7"/>
<circle id="Crater6" cx="273" cy="148" r="11" fill="#D7D7D7"/>
<path id="Crater5" d="M176 187C176 194.732 169.732 201 162 201C154.268 201 148 194.732 148 187C148 179.268 154.268 173 162 173C169.732 173 176 179.268 176 187Z" fill="#D7D7D7"/>
<circle id="Crater4" cx="204" cy="75" r="14" fill="#D7D7D7"/>
<circle id="Crater3" cx="148" cy="126" r="22" fill="#D7D7D7"/>
<circle id="Crater2" cx="221" cy="221" r="11" fill="#D7D7D7"/>
<circle id="Crater1" cx="212.5" cy="146.5" r="19.5" fill="#D7D7D7"/>
<path id="C1Shadow" fill-rule="evenodd" clip-rule="evenodd" d="M225.505 161.252C229.638 157.677 232.252 152.394 232.252 146.5C232.252 135.73 223.522 127 212.752 127C206.859 127 201.576 129.615 198 133.748C201.419 130.789 205.877 129 210.752 129C221.522 129 230.252 137.73 230.252 148.5C230.252 153.376 228.463 157.834 225.505 161.252Z" fill="#B8B8B8"/>
<path id="C3Shadow" fill-rule="evenodd" clip-rule="evenodd" d="M162.549 142.524C167.132 138.493 170.024 132.584 170.024 126C170.024 113.85 160.175 104 148.024 104C141.44 104 135.532 106.892 131.5 111.476C135.375 108.067 140.458 106 146.024 106C158.175 106 168.024 115.85 168.024 128C168.024 133.566 165.957 138.65 162.549 142.524Z" fill="#B8B8B8"/>
<path id="C4Shadow" fill-rule="evenodd" clip-rule="evenodd" d="M212.698 85.8492C215.842 83.2819 217.849 79.3753 217.849 75C217.849 67.268 211.581 61 203.849 61C199.474 61 195.567 63.0071 193 66.1508C195.412 64.1813 198.493 63 201.849 63C209.581 63 215.849 69.268 215.849 77C215.849 80.3566 214.668 83.4374 212.698 85.8492Z" fill="#B8B8B8"/>
<path id="C5Shadow" fill-rule="evenodd" clip-rule="evenodd" d="M170.698 197.849C173.842 195.282 175.849 191.375 175.849 187C175.849 179.268 169.581 173 161.849 173C157.474 173 153.567 175.007 151 178.151C153.412 176.181 156.493 175 159.849 175C167.581 175 173.849 181.268 173.849 189C173.849 192.357 172.668 195.437 170.698 197.849Z" fill="#B8B8B8"/>
<path id="C2Shadow" fill-rule="evenodd" clip-rule="evenodd" d="M227.678 229.714C230.285 227.703 231.964 224.547 231.964 221C231.964 214.925 227.039 210 220.964 210C217.417 210 214.261 211.679 212.25 214.286C214.108 212.853 216.436 212 218.964 212C225.039 212 229.964 216.925 229.964 223C229.964 225.528 229.111 227.856 227.678 229.714Z" fill="#B8B8B8"/>
<path id="C6Shadow" fill-rule="evenodd" clip-rule="evenodd" d="M279.678 156.714C282.285 154.703 283.964 151.547 283.964 148C283.964 141.925 279.039 137 272.964 137C269.417 137 266.261 138.679 264.25 141.286C266.108 139.853 268.436 139 270.964 139C277.039 139 281.964 143.925 281.964 150C281.964 152.528 281.111 154.856 279.678 156.714Z" fill="#B8B8B8"/>
</g>
</g>
</svg>
