<?xml version="1.0" encoding="UTF-8" standalone="no"?>
<!-- Created with Inkscape (http://www.inkscape.org/) -->

<svg
   xmlns:dc="http://purl.org/dc/elements/1.1/"
   xmlns:cc="http://creativecommons.org/ns#"
   xmlns:rdf="http://www.w3.org/1999/02/22-rdf-syntax-ns#"
   xmlns:svg="http://www.w3.org/2000/svg"
   xmlns="http://www.w3.org/2000/svg"
   xmlns:xlink="http://www.w3.org/1999/xlink"
   xmlns:sodipodi="http://sodipodi.sourceforge.net/DTD/sodipodi-0.dtd"
   xmlns:inkscape="http://www.inkscape.org/namespaces/inkscape"
   inkscape:export-ydpi="90.000000"
   inkscape:export-xdpi="90.000000"
   inkscape:export-filename="/home/jimmac/Desktop/wi-fi.png"
   width="300"
   height="300"
   id="svg11300"
   sodipodi:version="0.32"
   inkscape:version="0.91 r13725"
   sodipodi:docname="Blender.svg"
   inkscape:output_extension="org.inkscape.output.svg.inkscape"
   version="1.0"
   style="enable-background:new">
  <sodipodi:namedview
     stroke="#ef2929"
     fill="#f57900"
     id="base"
     pagecolor="#474747"
     bordercolor="#666666"
     borderopacity="0.25490196"
     inkscape:pageopacity="0"
     inkscape:pageshadow="2"
     inkscape:zoom="1"
     inkscape:cx="45.02872"
     inkscape:cy="157.85704"
     inkscape:current-layer="layer1"
     showgrid="false"
     inkscape:grid-bbox="true"
     inkscape:document-units="px"
     inkscape:showpageshadow="false"
     inkscape:window-width="1536"
     inkscape:window-height="801"
     inkscape:window-x="-8"
     inkscape:window-y="-8"
     width="400px"
     height="300px"
     inkscape:snap-nodes="false"
     inkscape:snap-bbox="true"
     inkscape:window-maximized="1">
    <inkscape:grid
       type="xygrid"
       id="grid5883"
       spacingx="1px"
       spacingy="1px" />
  </sodipodi:namedview>
  <defs
     id="defs3">
    <linearGradient
       inkscape:collect="always"
       id="linearGradient9792">
      <stop
         style="stop-color:#1064aa;stop-opacity:1"
         offset="0"
         id="stop9794" />
      <stop
         style="stop-color:#0d528b;stop-opacity:1"
         offset="1"
         id="stop9796" />
    </linearGradient>
    <inkscape:perspective
       id="perspective105"
       inkscape:persp3d-origin="300 : 400 : 1"
       inkscape:vp_z="700 : 600 : 1"
       inkscape:vp_y="0 : 1000 : 0"
       inkscape:vp_x="-50 : 600 : 1"
       sodipodi:type="inkscape:persp3d" />
    <inkscape:perspective
       id="perspective5151"
       inkscape:persp3d-origin="300 : 400 : 1"
       inkscape:vp_z="700 : 600 : 1"
       inkscape:vp_y="0 : 1000 : 0"
       inkscape:vp_x="-50 : 600 : 1"
       sodipodi:type="inkscape:persp3d" />
    <inkscape:perspective
       inkscape:persp3d-origin="300 : 400 : 1"
       inkscape:vp_z="700 : 600 : 1"
       inkscape:vp_y="0 : 1000 : 0"
       inkscape:vp_x="-50 : 600 : 1"
       id="perspective103"
       sodipodi:type="inkscape:persp3d" />
    <linearGradient
       id="linearGradient5457"
       inkscape:collect="always">
      <stop
         id="stop5459"
         offset="0"
         style="stop-color:#ffffff;stop-opacity:1;" />
      <stop
         id="stop5461"
         offset="1"
         style="stop-color:#ffffff;stop-opacity:0;" />
    </linearGradient>
    <linearGradient
       id="linearGradient5447"
       inkscape:collect="always">
      <stop
         id="stop5449"
         offset="0"
         style="stop-color:#ff830a;stop-opacity:1" />
      <stop
         id="stop5451"
         offset="1"
         style="stop-color:#d06700;stop-opacity:1" />
    </linearGradient>
    <inkscape:perspective
       inkscape:persp3d-origin="300 : 400 : 1"
       inkscape:vp_z="700 : 600 : 1"
       inkscape:vp_y="0 : 1000 : 0"
       inkscape:vp_x="-50 : 600 : 1"
       id="perspective91"
       sodipodi:type="inkscape:persp3d" />
    <inkscape:perspective
       inkscape:persp3d-origin="300 : 400 : 1"
       inkscape:vp_z="700 : 600 : 1"
       inkscape:vp_y="0 : 1000 : 0"
       inkscape:vp_x="-50 : 600 : 1"
       id="perspective90"
       sodipodi:type="inkscape:persp3d" />
    <linearGradient
       id="linearGradient6160"
       inkscape:collect="always">
      <stop
         id="stop6162"
         offset="0"
         style="stop-color:#eeeeec;stop-opacity:1;" />
      <stop
         id="stop6164"
         offset="1"
         style="stop-color:#eeeeec;stop-opacity:0;" />
    </linearGradient>
    <linearGradient
       id="linearGradient6115"
       inkscape:collect="always">
      <stop
         id="stop6117"
         offset="0"
         style="stop-color:#ffffff;stop-opacity:1;" />
      <stop
         id="stop6119"
         offset="1"
         style="stop-color:#ffffff;stop-opacity:0;" />
    </linearGradient>
    <linearGradient
       inkscape:collect="always"
       id="linearGradient3564">
      <stop
         style="stop-color:white;stop-opacity:1;"
         offset="0"
         id="stop3566" />
      <stop
         style="stop-color:white;stop-opacity:0;"
         offset="1"
         id="stop3568" />
    </linearGradient>
    <linearGradient
       inkscape:collect="always"
       id="linearGradient35488">
      <stop
         style="stop-color:black;stop-opacity:1;"
         offset="0"
         id="stop35490" />
      <stop
         style="stop-color:black;stop-opacity:0;"
         offset="1"
         id="stop35492" />
    </linearGradient>
    <linearGradient
       id="linearGradient39155">
      <stop
         style="stop-color:white;stop-opacity:1;"
         offset="0"
         id="stop39157" />
      <stop
         style="stop-color:#dadada;stop-opacity:1;"
         offset="1"
         id="stop39159" />
    </linearGradient>
    <linearGradient
       inkscape:collect="always"
       id="linearGradient39171">
      <stop
         style="stop-color:white;stop-opacity:1;"
         offset="0"
         id="stop39173" />
      <stop
         style="stop-color:white;stop-opacity:0;"
         offset="1"
         id="stop39175" />
    </linearGradient>
    <radialGradient
       r="15.467961"
       fy="40.303635"
       fx="28.915268"
       cy="40.303635"
       cx="28.915268"
       gradientTransform="matrix(1,0,0,0.342857,0,25.61831)"
       gradientUnits="userSpaceOnUse"
       id="radialGradient5348"
       xlink:href="#linearGradient35488"
       inkscape:collect="always" />
    <linearGradient
       y2="34.375"
       x2="29.875"
       y1="18.875"
       x1="31.1875"
       gradientUnits="userSpaceOnUse"
       id="linearGradient5350"
       xlink:href="#linearGradient39155"
       inkscape:collect="always" />
    <radialGradient
       r="15.467961"
       fy="38.98439"
       fx="28.019106"
       cy="38.98439"
       cx="28.019106"
       gradientTransform="matrix(1,0,0,0.342857,0,25.61831)"
       gradientUnits="userSpaceOnUse"
       id="radialGradient5482"
       xlink:href="#linearGradient35488"
       inkscape:collect="always" />
    <filter
       height="1.6071399"
       y="-0.30357"
       width="1.2081623"
       x="-0.10408114"
       id="filter6077"
       inkscape:collect="always">
      <feGaussianBlur
         id="feGaussianBlur6079"
         stdDeviation="1.3416025"
         inkscape:collect="always" />
    </filter>
    <clipPath
       id="clipPath6085"
       clipPathUnits="userSpaceOnUse">
      <path
         style="fill:none;fill-rule:evenodd;stroke:#954900;stroke-width:0.2076302;stroke-linecap:round;stroke-linejoin:round;stroke-miterlimit:4;stroke-dasharray:none;stroke-opacity:1"
         id="path6087"
         d="m 16.048489,28.093447 c 0.0098,0.576682 0.196474,1.697902 0.471116,2.577425 0.581566,1.854137 1.56684,3.572658 2.939126,5.086496 1.407488,1.553118 3.138519,2.803227 5.139315,3.68976 2.105357,0.931573 4.384795,1.407488 6.750134,1.403741 2.365339,-0.005 4.644601,-0.488686 6.74896,-1.427017 2.00002,-0.895288 3.731043,-2.148391 5.13754,-3.705517 1.369207,-1.519844 2.352576,-3.241114 2.934089,-5.096258 0.294262,-0.938353 0.476921,-1.889392 0.553238,-2.845308 0.07331,-0.939306 0.04204,-1.883511 -0.09183,-2.823792 -0.259981,-1.835599 -0.896294,-3.556847 -1.872652,-5.12758 -0.895541,-1.441699 -2.047808,-2.70454 -3.417268,-3.766975 0,0 0.002,-0.002 0.002,-0.002 0,0 -13.828458,-10.6197195 -13.828458,-10.6197195 -0.01176,-0.00978 -0.02252,-0.019551 -0.03529,-0.028344 -0.909003,-0.6959264 -2.434775,-0.6939758 -3.431728,0.00488 -1.01067,0.7057021 -1.091821,1.8092613 -0.195527,2.5482146 1.899775,1.4997633 3.792068,3.0680399 5.702368,4.5676189 0,0 -17.551681,-0.01171 -17.551681,-0.01171 -1.994685,0 -3.1682604,0.947915 -3.4153942,2.333683 -0.2180771,1.222836 0.7479213,2.738129 2.4800212,2.738129 2.956573,0.0039 5.942111,-0.0069 8.909215,-0.01272 0,0 -15.901723,11.764162 -15.901723,11.764162 -0.020527,0.01564 -0.041053,0.02933 -0.06158,0.04497 -1.4974197,1.148389 -1.9831951,3.059322 -1.0399808,4.268393 0.9598323,1.22959 2.9977653,1.230588 4.5147288,0.006 0,0 8.677593,-7.102098 8.677593,-7.102098 0,0 -0.12511,0.959824 -0.116333,1.535532 z"
         sodipodi:nodetypes="csssssssssscccsscccscccssccc"
         inkscape:connector-curvature="0" />
    </clipPath>
    <radialGradient
       gradientUnits="userSpaceOnUse"
       gradientTransform="matrix(1,0,0,0.8055409,0,4.4643372)"
       r="21.275852"
       fy="44.23357"
       fx="34.8689"
       cy="44.23357"
       cx="34.8689"
       id="radialGradient6101"
       xlink:href="#linearGradient3564"
       inkscape:collect="always" />
    <filter
       id="filter6103"
       inkscape:collect="always">
      <feGaussianBlur
         id="feGaussianBlur6105"
         stdDeviation="0.19207211"
         inkscape:collect="always" />
    </filter>
    <radialGradient
       gradientUnits="userSpaceOnUse"
       gradientTransform="matrix(1,0,0,0.8095091,0,4.3545041)"
       r="21.804205"
       fy="13.112802"
       fx="22.436661"
       cy="13.112802"
       cx="22.436661"
       id="radialGradient6121"
       xlink:href="#linearGradient6115"
       inkscape:collect="always" />
    <filter
       id="filter6127"
       inkscape:collect="always">
      <feGaussianBlur
         id="feGaussianBlur6129"
         stdDeviation="0.098637264"
         inkscape:collect="always" />
    </filter>
    <filter
       id="filter6156"
       inkscape:collect="always">
      <feGaussianBlur
         id="feGaussianBlur6158"
         stdDeviation="0.93085205"
         inkscape:collect="always" />
    </filter>
    <radialGradient
       gradientUnits="userSpaceOnUse"
       gradientTransform="matrix(1.1062168,0,0,0.7160758,-16.531813,35.180186)"
       r="113.01414"
       fy="58.663204"
       fx="155.64211"
       cy="58.663204"
       cx="155.64211"
       id="radialGradient6166"
       xlink:href="#linearGradient6160"
       inkscape:collect="always" />
    <radialGradient
       r="20.278975"
       fy="16.789225"
       fx="26.441687"
       cy="16.789225"
       cx="26.441687"
       gradientTransform="matrix(1.647222,0,0,1.26792,-15.47413,-5.79794)"
       gradientUnits="userSpaceOnUse"
       id="radialGradient6168"
       xlink:href="#linearGradient39171"
       inkscape:collect="always" />
    <radialGradient
       gradientUnits="userSpaceOnUse"
       gradientTransform="matrix(1.6103065,0,0,1.308109,-19.819726,-14.288347)"
       r="22.135635"
       fy="37.477009"
       fx="32.475037"
       cy="37.477009"
       cx="32.475037"
       id="radialGradient5453"
       xlink:href="#linearGradient5447"
       inkscape:collect="always" />
    <radialGradient
       gradientUnits="userSpaceOnUse"
       gradientTransform="matrix(2.0461723,0,0,2.2699636,-34.350196,-238.66924)"
       r="7.4158325"
       fy="188.28326"
       fx="32.834167"
       cy="188.28326"
       cx="32.834167"
       id="radialGradient5463"
       xlink:href="#linearGradient5457"
       inkscape:collect="always" />
    <filter
       height="1.348965"
       y="-0.17448251"
       width="1.3871316"
       x="-0.19356579"
       id="filter5489"
       inkscape:collect="always">
      <feGaussianBlur
         id="feGaussianBlur5491"
         stdDeviation="1.1962095"
         inkscape:collect="always" />
    </filter>
    <filter
       id="filter5467"
       inkscape:collect="always">
      <feGaussianBlur
         id="feGaussianBlur5469"
         stdDeviation="0.20058598"
         inkscape:collect="always" />
    </filter>
    <inkscape:perspective
       sodipodi:type="inkscape:persp3d"
       inkscape:vp_x="0 : 0.5 : 1"
       inkscape:vp_y="0 : 1000 : 0"
       inkscape:vp_z="1 : 0.5 : 1"
       inkscape:persp3d-origin="0.5 : 0.33333333 : 1"
       id="perspective18062" />
    <inkscape:perspective
       sodipodi:type="inkscape:persp3d"
       inkscape:vp_x="0 : 0.5 : 1"
       inkscape:vp_y="0 : 1000 : 0"
       inkscape:vp_z="1 : 0.5 : 1"
       inkscape:persp3d-origin="0.5 : 0.33333333 : 1"
       id="perspective19694" />
    <inkscape:perspective
       sodipodi:type="inkscape:persp3d"
       inkscape:vp_x="0 : 0.5 : 1"
       inkscape:vp_y="0 : 1000 : 0"
       inkscape:vp_z="1 : 0.5 : 1"
       inkscape:persp3d-origin="0.5 : 0.33333333 : 1"
       id="perspective19708" />
    <inkscape:perspective
       sodipodi:type="inkscape:persp3d"
       inkscape:vp_x="0 : 0.5 : 1"
       inkscape:vp_y="0 : 1000 : 0"
       inkscape:vp_z="1 : 0.5 : 1"
       inkscape:persp3d-origin="0.5 : 0.33333333 : 1"
       id="perspective19722" />
    <radialGradient
       inkscape:collect="always"
       xlink:href="#linearGradient9792"
       id="radialGradient9798"
       cx="31.857779"
       cy="22.970091"
       fx="31.857779"
       fy="22.970091"
       r="5.8577785"
       gradientTransform="matrix(1.2493214,0,0,0.91226922,-7.942827,2.2083028)"
       gradientUnits="userSpaceOnUse" />
  </defs>
  <metadata
     id="metadata4">
    <rdf:RDF>
      <cc:Work
         rdf:about="">
        <dc:format>image/svg+xml</dc:format>
        <dc:type
           rdf:resource="http://purl.org/dc/dcmitype/StillImage" />
        <dc:creator>
          <cc:Agent>
            <dc:title>Jakub Steiner</dc:title>
          </cc:Agent>
        </dc:creator>
        <dc:source>http://jimmac.musichall.cz</dc:source>
        <cc:license
           rdf:resource="http://creativecommons.org/licenses/by-sa/3.0/" />
        <dc:title>Folder</dc:title>
        <dc:subject>
          <rdf:Bag>
            <rdf:li>dir</rdf:li>
            <rdf:li>folder</rdf:li>
          </rdf:Bag>
        </dc:subject>
        <dc:date />
        <dc:rights>
          <cc:Agent>
            <dc:title />
          </cc:Agent>
        </dc:rights>
        <dc:publisher>
          <cc:Agent>
            <dc:title />
          </cc:Agent>
        </dc:publisher>
        <dc:identifier />
        <dc:relation />
        <dc:language />
        <dc:coverage />
        <dc:description />
        <dc:contributor>
          <cc:Agent>
            <dc:title />
          </cc:Agent>
        </dc:contributor>
      </cc:Work>
      <cc:Work
         rdf:about="">
        <dc:format>image/svg+xml</dc:format>
        <dc:type
           rdf:resource="http://purl.org/dc/dcmitype/StillImage" />
      </cc:Work>
      <cc:License
         rdf:about="http://creativecommons.org/licenses/by-sa/3.0/">
        <cc:permits
           rdf:resource="http://creativecommons.org/ns#Reproduction" />
        <cc:permits
           rdf:resource="http://creativecommons.org/ns#Distribution" />
        <cc:requires
           rdf:resource="http://creativecommons.org/ns#Notice" />
        <cc:requires
           rdf:resource="http://creativecommons.org/ns#Attribution" />
        <cc:permits
           rdf:resource="http://creativecommons.org/ns#DerivativeWorks" />
        <cc:requires
           rdf:resource="http://creativecommons.org/ns#ShareAlike" />
      </cc:License>
    </rdf:RDF>
  </metadata>
  <g
     inkscape:groupmode="layer"
     id="layer3"
     inkscape:label="baseplate"
     style="display:none">
    <rect
       style="display:inline;overflow:visible;visibility:visible;fill:#eeeeec;fill-opacity:1;fill-rule:nonzero;stroke:none;stroke-width:2;marker:none;enable-background:accumulate"
       id="rect6282"
       width="256"
       height="256"
       x="20"
       y="20"
       inkscape:label="256x256" />
    <rect
       inkscape:label="48x48"
       y="39.99633"
       x="296.0625"
       height="48"
       width="48"
       id="rect6284"
       style="display:inline;overflow:visible;visibility:visible;fill:#eeeeec;fill-opacity:1;fill-rule:nonzero;stroke:none;stroke-width:2;marker:none;enable-background:accumulate" />
    <rect
       style="display:inline;overflow:visible;visibility:visible;fill:#eeeeec;fill-opacity:1;fill-rule:nonzero;stroke:none;stroke-width:2;marker:none;enable-background:accumulate"
       id="rect6592"
       width="32"
       height="32"
       x="303"
       y="115.99633"
       inkscape:label="32x32" />
    <rect
       inkscape:label="22x22"
       y="167.05884"
       x="303"
       height="22"
       width="22"
       id="rect6749"
       style="display:inline;overflow:visible;visibility:visible;fill:#eeeeec;fill-opacity:1;fill-rule:nonzero;stroke:none;stroke-width:2;marker:none;enable-background:accumulate" />
    <rect
       style="display:inline;overflow:visible;visibility:visible;fill:#eeeeec;fill-opacity:1;fill-rule:nonzero;stroke:none;stroke-width:2;marker:none;enable-background:accumulate"
       id="rect6833"
       width="16"
       height="16"
       x="303"
       y="209"
       inkscape:label="16x16" />
    <rect
       style="display:inline;overflow:visible;visibility:visible;fill:#eeeeec;fill-opacity:1;fill-rule:nonzero;stroke:none;stroke-width:2;marker:none;enable-background:accumulate"
       id="rect5028"
       width="24"
       height="24"
       x="301.95709"
       y="165.95343"
       inkscape:label="24x24" />
    <text
       inkscape:label="context"
       sodipodi:linespacing="125%"
       id="context"
       y="-18.999996"
       x="21"
       style="font-style:normal;font-variant:normal;font-weight:normal;font-stretch:normal;font-size:20px;line-height:125%;font-family:'Trebuchet MS';-inkscape-font-specification:'Trebuchet MS';text-align:start;writing-mode:lr-tb;text-anchor:start;display:inline;fill:#000000;fill-opacity:1;stroke:none;enable-background:new"
       xml:space="preserve"><tspan
         y="-18.999996"
         x="21"
         id="tspan16843"
         sodipodi:role="line">apps</tspan></text>
    <text
       inkscape:label="icon-name"
       sodipodi:linespacing="125%"
       id="icon-name"
       y="-18.999996"
       x="159"
       style="font-style:normal;font-variant:normal;font-weight:normal;font-stretch:normal;font-size:20px;line-height:125%;font-family:'Trebuchet MS';-inkscape-font-specification:'Trebuchet MS';text-align:start;writing-mode:lr-tb;text-anchor:start;display:inline;fill:#000000;fill-opacity:1;stroke:none;enable-background:new"
       xml:space="preserve"><tspan
         y="-18.999996"
         x="159"
         id="tspan16847"
         sodipodi:role="line">blender</tspan></text>
  </g>
  <g
     id="layer1"
     inkscape:label="artwork"
     inkscape:groupmode="layer"
     style="display:inline">
    <g
       id="g5332"
       inkscape:label="Layer 1"
       transform="matrix(5.4776822,0,0,5.4776822,10.728205,6.96691)">
      <g
         id="g5334">
        <ellipse
           transform="matrix(0.6403051,0,0,0.6919793,12.73379,11.876691)"
           id="path5480"
           style="display:inline;overflow:visible;visibility:visible;fill:url(#radialGradient5482);fill-opacity:1;fill-rule:nonzero;stroke:none;stroke-width:1;marker:none;enable-background:accumulate"
           cx="28.019106"
           cy="38.98439"
           rx="15.467961"
           ry="5.3033009" />
        <ellipse
           style="display:inline;overflow:visible;visibility:visible;opacity:0.7837838;fill:url(#radialGradient5348);fill-opacity:1;fill-rule:nonzero;stroke:none;stroke-width:1;marker:none;filter:url(#filter6077);enable-background:accumulate"
           id="path5336"
           transform="matrix(1.274286,0,0,1.377124,-7.569123,-16.70193)"
           cx="28.019106"
           cy="38.98439"
           rx="15.467961"
           ry="5.3033009" />
        <path
           style="fill:url(#radialGradient5453);fill-opacity:1;fill-rule:evenodd;stroke:none"
           id="path5338"
           d="m 16.048489,28.093447 c 0.0098,0.576682 0.196474,1.697902 0.471116,2.577425 0.581566,1.854137 1.56684,3.572658 2.939126,5.086496 1.407488,1.553118 3.138519,2.803227 5.139315,3.68976 2.105357,0.931573 4.384795,1.407488 6.750134,1.403741 2.365339,-0.005 4.644601,-0.488686 6.74896,-1.427017 2.00002,-0.895288 3.731043,-2.148391 5.13754,-3.705517 1.369207,-1.519844 2.352576,-3.241114 2.934089,-5.096258 0.294262,-0.938353 0.476921,-1.889392 0.553238,-2.845308 0.07331,-0.939306 0.04204,-1.883511 -0.09183,-2.823792 -0.259981,-1.835599 -0.896294,-3.556847 -1.872652,-5.12758 -0.895541,-1.441699 -2.047808,-2.70454 -3.417268,-3.766975 0,0 0.002,-0.002 0.002,-0.002 0,0 -13.828458,-10.6197195 -13.828458,-10.6197195 -0.01176,-0.00978 -0.02252,-0.019551 -0.03529,-0.028344 -0.909003,-0.6959264 -2.434775,-0.6939758 -3.431728,0.00488 -1.01067,0.7057021 -1.091821,1.8092613 -0.195527,2.5482146 1.899775,1.4997633 3.792068,3.0680399 5.702368,4.5676189 0,0 -17.551681,-0.01171 -17.551681,-0.01171 -1.994685,0 -3.1682604,0.947915 -3.4153942,2.333683 -0.2180771,1.222836 0.7479213,2.738129 2.4800212,2.738129 2.956573,0.0039 5.942111,-0.0069 8.909215,-0.01272 0,0 -15.901723,11.764162 -15.901723,11.764162 -0.020527,0.01564 -0.041053,0.02933 -0.06158,0.04497 -1.4974197,1.148389 -1.9831951,3.059322 -1.0399808,4.268393 0.9598323,1.22959 2.9977653,1.230588 4.5147288,0.006 0,0 8.677593,-7.102098 8.677593,-7.102098 0,0 -0.12511,0.959824 -0.116333,1.535532 z"
           sodipodi:nodetypes="csssssssssscccsscccscccssccc"
           inkscape:connector-curvature="0" />
        <ellipse
           style="display:inline;overflow:visible;visibility:visible;fill:url(#linearGradient5350);fill-opacity:1;fill-rule:nonzero;stroke:none;stroke-width:1;marker:none;enable-background:accumulate"
           id="path5340"
           transform="matrix(0.821621,0,0,0.839506,5.875686,3.882724)"
           cx="31.1875"
           cy="25.75"
           rx="11.5625"
           ry="10.125" />
        <path
           style="opacity:0.4857143;fill:none;stroke:url(#radialGradient6101);stroke-width:0.36511794;stroke-linecap:butt;stroke-linejoin:miter;stroke-miterlimit:4;stroke-dasharray:none;stroke-opacity:1;filter:url(#filter6103)"
           d="m 25.796988,6.0267804 c -0.404852,5.53e-4 -0.818619,0.1256944 -1.095272,0.3196267 -7.14e-4,7.142e-4 -0.0014,0.00143 -0.0021,0.00213 -0.280209,0.1956525 -0.336859,0.3680061 -0.345206,0.4602725 -0.0083,0.092266 -0.01324,0.1672776 0.189655,0.3345475 0.01899,0.015735 0.03747,0.032076 0.0554,0.049009 0.124258,0.1010285 5.704394,4.6389489 5.704394,4.6389489 0.373658,0.304091 0.51584,0.810232 0.355197,1.264415 -0.160635,0.454191 -0.589422,0.382732 -1.071174,0.384283 -5.634142,0.05114 -17.60967,0.01918 -17.60967,0.01918 -0.952967,6.38e-4 -2.3472795,0.516793 -2.4135719,1.585761 -0.063562,1.024947 0.9093059,1.457499 1.5782589,1.457499 0,0 8.830403,-0.01705 8.830403,-0.01705 0.488364,-5.91e-4 0.922857,0.221532 1.080466,0.683755 0.15761,0.462231 0.0033,0.53156 -0.383664,0.829439 0,0 -15.9006939,12.205735 -15.9006939,12.205735 -0.00142,0.0014 -0.00284,0.0028 -0.00426,0.0043 -0.064038,0.04879 -0.084772,0.06226 -0.061795,0.04476 -0.5536756,0.424618 -0.8961097,0.98072 -1.0185711,1.476701 -0.1224537,0.495981 -0.04659,0.882548 0.1875202,1.182646 0.4788333,0.613413 1.8577618,0.820499 2.9863998,-0.09061 0,0 8.672724,-7.09799 8.672724,-7.09799 0.361955,-0.295752 0.77937,-0.340606 1.187723,-0.113169 0.408345,0.227437 0.548124,0.592694 0.487243,1.05613 0,0 -0.112502,0.980045 -0.10655,1.370159 0.192357,2.636407 1.448328,5.003383 3.115366,7.003128 2.877746,3.172809 6.937778,4.644674 11.130659,4.808308 4.20342,-0.04394 8.318367,-1.795011 11.174847,-4.89086 C 47.739634,28.611968 46.32987,21.589741 40.640807,16.960414 36.14442,13.301596 31.42752,9.8792042 26.81986,6.3400569 c -0.0043,-0.00352 -0.0086,-0.00707 -0.01279,-0.010651 -0.0072,-0.00489 -0.01427,-0.00987 -0.02131,-0.014921 -0.210578,-0.1612268 -0.584681,-0.288265 -0.988772,-0.2877045 z"
           id="path5342"
           sodipodi:nodetypes="cssssscscczccsccssssccscccccscssc"
           inkscape:connector-curvature="0" />
        <path
           style="fill:url(#radialGradient9798);fill-opacity:1;fill-rule:evenodd;stroke:none"
           id="path5344"
           d="m 25.824987,24.903921 c 0.07942,-1.451637 0.788437,-2.733003 1.854283,-3.640163 1.048896,-0.891767 2.457385,-1.436271 3.995946,-1.436271 1.537581,0 2.946071,0.544504 3.994721,1.436271 1.067023,0.90716 1.775187,2.187565 1.855531,3.639202 0.08231,1.493972 -0.514893,2.88116 -1.561584,3.908574 -1.067024,1.046647 -2.588437,1.703695 -4.288668,1.703695 -1.70121,0 -3.222624,-0.657048 -4.289597,-1.703695 -1.047769,-1.027414 -1.642911,-2.414602 -1.560632,-3.907613 z"
           inkscape:connector-curvature="0" />
        <path
           style="opacity:0.51999996;fill:url(#radialGradient6168);fill-opacity:1;fill-rule:evenodd;stroke:none"
           d="m 24.59375,7.1875 c 0,0 5.71875,4.65625 5.71875,4.65625 0.495581,0.404913 0.140487,1.262555 -0.78125,1.25 -5.634142,0.05114 -17.375,-0.03125 -17.375,-0.03125 -0.83333,0 -2.34375,0.577974 -2.34375,1.6875 0,1.109526 0.674797,1.256826 1.34375,1.25092 10e-7,0 8.8125,0 8.8125,0 1.45524,0.03051 1.617186,1.227393 0.6875,2.03033 0,0 -15.875,12.21875 -15.875,12.21875 -0.00142,0.0014 -0.029829,-0.0014 -0.03125,0 -0.064037,0.04879 -0.054226,0.04875 -0.03125,0.03125 -0.5536758,0.424619 -0.9087886,1.004019 -1.03125,1.5 -0.1224536,0.495981 -0.04661,0.856152 0.1875,1.15625 0.4788333,0.613413 1.7334178,0.312915 2.8620558,-0.598192 10e-8,10e-7 8.5678612,-7.049556 8.5678612,-7.049556 0.825495,-0.683682 2.569434,-0.118316 2.418275,1.384804 -0.225591,2.243266 0.09704,3.321215 0.922097,5.052178 2.275388,4.773775 9.8328,-12.333881 26.249318,-10.695484 -0.847848,-1.48757 -2.036218,-3.155316 -3.53125,-4.371859 C 36.866972,13.000573 27.607995,6.1227791 27.607995,6.1227791 26.244584,5.10849 23.323901,5.9514388 24.59375,7.1875 Z"
           id="path5346"
           sodipodi:nodetypes="cccczscccssssscsscsss"
           inkscape:connector-curvature="0" />
        <path
           clip-path="url(#clipPath6085)"
           sodipodi:nodetypes="csssssssssscccsscccscccssccc"
           d="m 16.048489,28.093447 c 0.0098,0.576682 0.196474,1.697902 0.471116,2.577425 0.581566,1.854137 1.56684,3.572658 2.939126,5.086496 1.407488,1.553118 3.138519,2.803227 5.139315,3.68976 2.105357,0.931573 4.384795,1.407488 6.750134,1.403741 2.365339,-0.005 4.644601,-0.488686 6.74896,-1.427017 2.00002,-0.895288 3.731043,-2.148391 5.13754,-3.705517 1.369207,-1.519844 2.352576,-3.241114 2.934089,-5.096258 0.294262,-0.938353 0.476921,-1.889392 0.553238,-2.845308 0.07331,-0.939306 0.04204,-1.883511 -0.09183,-2.823792 -0.259981,-1.835599 -0.896294,-3.556847 -1.872652,-5.12758 -0.895541,-1.441699 -2.047808,-2.70454 -3.417268,-3.766975 0,0 0.002,-0.002 0.002,-0.002 0,0 -13.828458,-10.6197195 -13.828458,-10.6197195 -0.01176,-0.00978 -0.02252,-0.019551 -0.03529,-0.028344 -0.909003,-0.6959264 -2.434775,-0.6939758 -3.431728,0.00488 -1.01067,0.7057021 -1.091821,1.8092613 -0.195527,2.5482146 1.899775,1.4997633 3.792068,3.0680399 5.702368,4.5676189 0,0 -17.551681,-0.01171 -17.551681,-0.01171 -1.994685,0 -3.1682604,0.947915 -3.4153942,2.333683 -0.2180771,1.222836 0.7479213,2.738129 2.4800212,2.738129 2.956573,0.0039 5.942111,-0.0069 8.909215,-0.01272 0,0 -15.901723,11.764162 -15.901723,11.764162 -0.020527,0.01564 -0.041053,0.02933 -0.06158,0.04497 -1.4974197,1.148389 -1.9831951,3.059322 -1.0399808,4.268393 0.9598323,1.22959 2.9977653,1.230588 4.5147288,0.006 0,0 8.677593,-7.102098 8.677593,-7.102098 0,0 -0.12511,0.959824 -0.116333,1.535532 z"
           id="path6081"
           style="opacity:0.69791667;fill:none;stroke:#954900;stroke-width:0.73023587;stroke-linecap:round;stroke-linejoin:round;stroke-miterlimit:4;stroke-dasharray:none;stroke-opacity:1;filter:url(#filter5467)"
           inkscape:connector-curvature="0" />
        <path
           transform="translate(-0.1038151,0.1038151)"
           d="m 25.794922,5.3222656 c -0.538565,7.421e-4 -1.086192,0.1552367 -1.5,0.4453125 a 0.43281463,0.43281463 0 0 1 0,0.00195 c -0.423068,0.2954078 -0.605707,0.6310469 -0.628906,0.9375 -0.0232,0.3064532 0.09921,0.6216964 0.460937,0.9199219 1.90278,1.5023378 3.791816,3.0697949 5.693359,4.5624999 a 0.43281463,0.43281463 0 0 1 -0.267578,0.773438 l -17.550781,-0.01172 c -0.928767,0 -1.626708,0.219882 -2.111328,0.566406 -0.4846204,0.346525 -0.7731426,0.817102 -0.8789062,1.410156 -0.1684281,0.944437 0.5750141,2.228516 2.0546872,2.228516 2.955042,0.0039 5.94248,-0.0079 8.910156,-0.01367 a 0.43281463,0.43281463 0 0 1 0.257813,0.78125 L 4.3320312,29.6875 c -0.033643,0.02531 -0.054583,0.03955 -0.056641,0.04102 -1.3491441,1.034674 -1.7238062,2.682263 -0.9609375,3.660156 0.7767373,0.995037 2.5292018,1.041266 3.8984375,-0.0625 l 0.00195,-0.002 8.6757812,-7.09961 a 0.43281463,0.43281463 0 0 1 0.703125,0.388672 c 0,0 -0.119046,0.968356 -0.111328,1.47461 0.0086,0.493651 0.191293,1.620879 0.451172,2.453125 l -0.002,0 c 0.56265,1.79383 1.515665,3.456395 2.847656,4.925781 1.366545,1.507938 3.046581,2.72104 4.994141,3.583984 2.049596,0.9069 4.267438,1.370843 6.574218,1.367188 2.306203,-0.0049 4.523988,-0.475634 6.572266,-1.388672 1.946695,-0.871418 3.626972,-2.088766 4.992187,-3.599609 1.329419,-1.475679 2.281022,-3.140331 2.84375,-4.935547 0.284497,-0.907213 0.461329,-1.827054 0.535157,-2.75 l 0,-0.002 c 0.07062,-0.906718 0.04151,-1.819627 -0.08789,-2.728516 -0.251489,-1.77564 -0.866415,-3.436954 -1.8125,-4.958984 -0.86749,-1.39654 -1.985287,-2.621607 -3.316406,-3.654297 a 0.43281463,0.43281463 0 0 1 -0.0332,-0.02734 0.43281463,0.43281463 0 0 1 -0.0039,-0.0039 L 27.25,5.78125 a 0.43281463,0.43281463 0 0 1 -0.01367,-0.011719 c -0.0328,-0.027279 -0.03415,-0.026682 -0.0039,-0.00586 a 0.43281463,0.43281463 0 0 1 -0.01758,-0.011719 C 26.853811,5.4755491 26.333942,5.3215229 25.794922,5.3222656 Z"
           inkscape:href="#path5338"
           id="path6113"
           style="opacity:0.43678164;fill:none;stroke:url(#radialGradient6121);stroke-width:0.18255897;stroke-linecap:round;stroke-linejoin:round;stroke-miterlimit:4;stroke-dasharray:none;stroke-opacity:1;filter:url(#filter6127)"
           xlink:href="#path5338"
           inkscape:original="M 25.794922 4.8886719 C 25.175234 4.8895257 24.545352 5.0646346 24.046875 5.4140625 C 23.036205 6.1197646 22.955269 7.2219842 23.851562 7.9609375 C 25.751338 9.4607008 27.642434 11.029718 29.552734 12.529297 L 12.001953 12.517578 C 10.007268 12.517578 8.8330713 13.465794 8.5859375 14.851562 C 8.3678604 16.074399 9.3343064 17.589844 11.066406 17.589844 C 14.022979 17.593744 17.009459 17.581992 19.976562 17.576172 L 4.0742188 29.339844 C 4.0536917 29.355484 4.0322458 29.369126 4.0117188 29.384766 C 2.514299 30.533155 2.0294419 32.445226 2.9726562 33.654297 C 3.9324885 34.883887 5.9693646 34.884744 7.4863281 33.660156 L 16.164062 26.558594 C 16.164062 26.558594 16.040051 27.518042 16.048828 28.09375 C 16.058628 28.670432 16.244889 29.790399 16.519531 30.669922 C 17.101097 32.524059 18.086698 34.243974 19.458984 35.757812 C 20.866472 37.31093 22.59686 38.560733 24.597656 39.447266 C 26.703013 40.378839 28.982317 40.85531 31.347656 40.851562 C 33.712995 40.846562 35.993297 40.362159 38.097656 39.423828 C 40.097676 38.52854 41.827878 37.275876 43.234375 35.71875 C 44.603582 34.198906 45.586456 32.478191 46.167969 30.623047 C 46.462231 29.684694 46.646339 28.73326 46.722656 27.777344 C 46.795966 26.838038 46.764729 25.893406 46.630859 24.953125 C 46.370878 23.117526 45.73417 21.396905 44.757812 19.826172 C 43.862271 18.384473 42.709304 17.121029 41.339844 16.058594 L 41.341797 16.056641 L 27.513672 5.4375 C 27.501912 5.42772 27.491286 5.4169961 27.478516 5.4082031 C 27.024014 5.0602399 26.414609 4.887818 25.794922 4.8886719 z "
           inkscape:radius="-0.43277135"
           sodipodi:type="inkscape:offset" />
        <path
           id="path6151"
           transform="matrix(0.1857898,0,0,0.1857898,-2.4225986,-1.6310883)"
           d="m 153.40625,38.03125 c -5.56523,0.01098 -10.69216,2.532873 -9.5,6.0625 1.49885,-4.120535 12.31419,-5.870121 18.0625,-1.59375 0,0 50.71398,37.676904 75.34375,57.71875 7.49621,6.09984 13.55477,14.25472 18.09375,21.84375 0.41707,0.0374 0.83082,0.0519 1.25,0.0937 C 252.012,114.00782 245.50181,104.88259 237.3125,98.21875 212.68273,78.176911 161.96875,40.5 161.96875,40.5 c -2.33385,-1.736235 -5.52342,-2.474747 -8.5625,-2.46875 z m 24.4375,37.34375 c -0.52291,1.766542 -2.397,3.352638 -5.34375,3.3125 -30.86204,0.280116 -95.1875,-0.15625 -95.1875,-0.15625 -4.564714,-10e-7 -12.84375,3.141119 -12.84375,9.21875 0,0.379852 0.03453,0.753994 0.0625,1.09375 0.781053,-5.477136 8.452586,-8.3125 12.78125,-8.3125 0,0 64.32546,0.436359 95.1875,0.15625 4.0631,0.05534 6.11164,-2.970588 5.34375,-5.3125 z m -50.90625,25.46875 c -0.30408,1.66026 -1.32885,3.40896 -3.0625,4.90625 0,0 -86.96875,66.90625 -86.96875,66.90625 -0.0078,0.008 -0.148468,-0.008 -0.15625,0 -0.350777,0.26728 -0.313357,0.28336 -0.1875,0.1875 -3.032861,2.32594 -4.954195,5.50192 -5.625,8.21875 -0.306372,1.24091 -0.375948,2.3112 -0.25,3.28125 0.05246,-0.4134 0.138206,-0.82845 0.25,-1.28125 0.670805,-2.71683 2.592139,-5.89281 5.625,-8.21875 -0.125857,0.0959 -0.163277,0.0798 0.1875,-0.1875 0.0078,-0.008 0.148469,0.008 0.15625,0 0,0 86.96875,-66.90625 86.96875,-66.90625 2.45227,-2.11794 3.50673,-4.74191 3.0625,-6.90625 z m -19.125,52.34375 c -0.30179,3.03149 -0.43687,5.65829 -0.375,8.0625 0.026,-1.8868 0.1482,-3.90098 0.375,-6.15625 0.067,-0.66645 0.0608,-1.30801 0,-1.90625 z"
           style="fill:url(#radialGradient6166);fill-opacity:1;fill-rule:evenodd;stroke:none;filter:url(#filter6156)"
           inkscape:connector-curvature="0" />
        <path
           sodipodi:nodetypes="ccc"
           transform="matrix(0.182559,0,0,0.182559,-1.95853,-1.2718719)"
           id="path5455"
           d="m 29.75,176 c -2.614996,11.18132 0.641128,17.71466 14,16.25 -9.13081,-1.29592 -13.534207,-6.9556 -14,-16.25 z"
           style="opacity:0.54819282;fill:url(#radialGradient5463);fill-opacity:1;fill-rule:evenodd;stroke:none;filter:url(#filter5489)"
           inkscape:connector-curvature="0" />
      </g>
    </g>
    <g
       id="g9782">
      <path
         inkscape:connector-curvature="0"
         d="m 491.24978,63.587162 c 0.0868,-1.562276 0.85304,-2.940366 2.0071,-3.917191 l 0,0 c 1.13397,-0.959657 2.65807,-1.545263 4.32238,-1.545368 l 0,0 c 1.66352,1.05e-4 3.18763,0.585711 4.32164,1.545368 l 0,0 c 1.15441,0.976825 1.92058,2.354729 2.0083,3.916662 0.0883,1.607195 -0.5568,3.100488 -1.69002,4.206112 l 0,0 c -1.15468,1.126218 -2.79964,1.833283 -4.63965,1.833283 l 0,0 c -1.84055,0 -3.48657,-0.707065 -4.6413,-1.833283 l 0,0 c -1.13316,-1.1052 -1.77768,-2.598705 -1.68845,-4.205583"
         style="fill:#0d528b;fill-opacity:1;fill-rule:nonzero;stroke:none"
         id="path9266" />
      <path
         inkscape:connector-curvature="0"
         d="m 481.16722,66.750592 c 0.0104,0.610255 0.20736,1.79817 0.49919,2.729465 l 0,0 c 0.61545,1.964124 1.65874,3.783545 3.11239,5.387111 l 0,0 c 1.49072,1.645175 3.32369,2.969218 5.44354,3.907954 l 0,0 c 2.22956,0.986777 4.64394,1.49145 7.14888,1.48679 l 0,0 c 2.50548,-0.0047 4.91952,-0.5173 7.14831,-1.511426 l 0,0 c 2.11802,-0.947748 3.95115,-2.274901 5.44081,-3.925057 l 0,0 c 1.4507,-1.60945 2.49248,-3.431761 3.10865,-5.397552 l 0,0 c 0.31113,-0.993921 0.50512,-2.000669 0.58489,-3.012691 l 0,0 c 0.0777,-0.995696 0.0445,-1.994889 -0.0967,-2.99138 l 0,0 c -0.27562,-1.943638 -0.94876,-3.766981 -1.98312,-5.430282 -0.94903,-1.527057 -2.16917,-2.864253 -3.61988,-3.990365 l 0,0 0.002,-0.0019 0,0 -14.64557,-11.247437 0,0 c -0.0127,-0.01007 -0.0246,-0.0204 -0.0374,-0.03021 l 0,0 c -0.96328,-0.736748 -2.57907,-0.734363 -3.635,0.0053 l 0,0 c -1.06998,0.747614 -1.18998,1.982859 -0.24037,2.76466 l 0,0 -0.003,0.0024 0,0 6.10894,4.968542 -18.62178,0.01988 0,0 c -0.009,0 -0.0169,-2.54e-4 -0.0254,-2.54e-4 l 0,0 c -1.53866,7.81e-4 -3.01717,1.012631 -3.31158,2.287629 l 0,0 c -0.29846,1.300517 0.747,2.378713 2.34591,2.384837 l 0,0 -8.7e-4,0.0054 0,0 9.43718,-0.01812 -16.84256,12.927248 0,0 c -0.0213,0.01624 -0.0435,0.03159 -0.0647,0.04813 l 0,0 c -1.58657,1.216401 -2.10109,3.240153 -1.10147,4.520744 l 0,0 c 1.01669,1.302506 3.17515,1.303326 4.78149,0.0059 l 0,0 9.19101,-7.5214 c 0,0 -0.13322,1.015864 -0.12318,1.626223 z m 23.61918,3.398421 c -1.89407,1.931845 -4.54345,3.025253 -7.41438,3.02989 l 0,0 c -2.87226,0.0059 -5.52304,-1.079204 -7.41741,-3.005774 l 0,0 c -0.92589,-0.939669 -1.60603,-2.017734 -2.02563,-3.169949 l 0,0 c -0.41078,-1.130245 -0.5704,-2.328628 -0.46553,-3.539224 l 0,0 c 0.10249,-1.18492 0.4522,-2.312381 1.01629,-3.334659 l 0,0 c 0.5529,-1.003965 1.3139,-1.910907 2.25336,-2.678847 l 0,0 c 1.84095,-1.501268 4.18327,-2.31238 6.63653,-2.315588 l 0,0 c 2.45327,-0.0035 4.79576,0.801359 6.63656,2.296745 l 0,0 c 0.9387,0.76378 1.69904,1.667754 2.25239,2.669942 l 0,0 c 0.56369,1.020529 0.91378,2.146534 1.01687,3.331769 l 0,0 c 0.10468,1.209461 -0.0549,2.408769 -0.46563,3.539942 l 0,0 c -0.41926,1.152825 -1.09877,2.232769 -2.02342,3.175753"
         style="fill:#f5792a;fill-opacity:1;fill-rule:nonzero;stroke:none"
         id="path9268" />
    </g>
    <g
       id="g9786"
       transform="matrix(5.2091874,0,0,5.2091874,-2775.9222,-186.77589)">
      <path
         id="path9788"
         style="fill:#0d528b;fill-opacity:1;fill-rule:nonzero;stroke:none"
         d="m 491.24978,63.587162 c 0.0868,-1.562276 0.85304,-2.940366 2.0071,-3.917191 l 0,0 c 1.13397,-0.959657 2.65807,-1.545263 4.32238,-1.545368 l 0,0 c 1.66352,1.05e-4 3.18763,0.585711 4.32164,1.545368 l 0,0 c 1.15441,0.976825 1.92058,2.354729 2.0083,3.916662 0.0883,1.607195 -0.5568,3.100488 -1.69002,4.206112 l 0,0 c -1.15468,1.126218 -2.79964,1.833283 -4.63965,1.833283 l 0,0 c -1.84055,0 -3.48657,-0.707065 -4.6413,-1.833283 l 0,0 c -1.13316,-1.1052 -1.77768,-2.598705 -1.68845,-4.205583"
         inkscape:connector-curvature="0" />
      <path
         id="path9790"
         style="fill:#f5792a;fill-opacity:1;fill-rule:nonzero;stroke:none"
         d="m 481.16722,66.750592 c 0.0104,0.610255 0.20736,1.79817 0.49919,2.729465 l 0,0 c 0.61545,1.964124 1.65874,3.783545 3.11239,5.387111 l 0,0 c 1.49072,1.645175 3.32369,2.969218 5.44354,3.907954 l 0,0 c 2.22956,0.986777 4.64394,1.49145 7.14888,1.48679 l 0,0 c 2.50548,-0.0047 4.91952,-0.5173 7.14831,-1.511426 l 0,0 c 2.11802,-0.947748 3.95115,-2.274901 5.44081,-3.925057 l 0,0 c 1.4507,-1.60945 2.49248,-3.431761 3.10865,-5.397552 l 0,0 c 0.31113,-0.993921 0.50512,-2.000669 0.58489,-3.012691 l 0,0 c 0.0777,-0.995696 0.0445,-1.994889 -0.0967,-2.99138 l 0,0 c -0.27562,-1.943638 -0.94876,-3.766981 -1.98312,-5.430282 -0.94903,-1.527057 -2.16917,-2.864253 -3.61988,-3.990365 l 0,0 0.002,-0.0019 0,0 -14.64557,-11.247437 0,0 c -0.0127,-0.01007 -0.0246,-0.0204 -0.0374,-0.03021 l 0,0 c -0.96328,-0.736748 -2.57907,-0.734363 -3.635,0.0053 l 0,0 c -1.06998,0.747614 -1.18998,1.982859 -0.24037,2.76466 l 0,0 -0.003,0.0024 0,0 6.10894,4.968542 -18.62178,0.01988 0,0 c -0.009,0 -0.0169,-2.54e-4 -0.0254,-2.54e-4 l 0,0 c -1.53866,7.81e-4 -3.01717,1.012631 -3.31158,2.287629 l 0,0 c -0.29846,1.300517 0.747,2.378713 2.34591,2.384837 l 0,0 -8.7e-4,0.0054 0,0 9.43718,-0.01812 -16.84256,12.927248 0,0 c -0.0213,0.01624 -0.0435,0.03159 -0.0647,0.04813 l 0,0 c -1.58657,1.216401 -2.10109,3.240153 -1.10147,4.520744 l 0,0 c 1.01669,1.302506 3.17515,1.303326 4.78149,0.0059 l 0,0 9.19101,-7.5214 c 0,0 -0.13322,1.015864 -0.12318,1.626223 z m 23.61918,3.398421 c -1.89407,1.931845 -4.54345,3.025253 -7.41438,3.02989 l 0,0 c -2.87226,0.0059 -5.52304,-1.079204 -7.41741,-3.005774 l 0,0 c -0.92589,-0.939669 -1.60603,-2.017734 -2.02563,-3.169949 l 0,0 c -0.41078,-1.130245 -0.5704,-2.328628 -0.46553,-3.539224 l 0,0 c 0.10249,-1.18492 0.4522,-2.312381 1.01629,-3.334659 l 0,0 c 0.5529,-1.003965 1.3139,-1.910907 2.25336,-2.678847 l 0,0 c 1.84095,-1.501268 4.18327,-2.31238 6.63653,-2.315588 l 0,0 c 2.45327,-0.0035 4.79576,0.801359 6.63656,2.296745 l 0,0 c 0.9387,0.76378 1.69904,1.667754 2.25239,2.669942 l 0,0 c 0.56369,1.020529 0.91378,2.146534 1.01687,3.331769 l 0,0 c 0.10468,1.209461 -0.0549,2.408769 -0.46563,3.539942 l 0,0 c -0.41926,1.152825 -1.09877,2.232769 -2.02342,3.175753"
         inkscape:connector-curvature="0" />
    </g>
  </g>
</svg>
