<?xml version="1.0" encoding="UTF-8" standalone="no"?>
<svg
   xmlns:dc="http://purl.org/dc/elements/1.1/"
   xmlns:cc="http://creativecommons.org/ns#"
   xmlns:rdf="http://www.w3.org/1999/02/22-rdf-syntax-ns#"
   xmlns:svg="http://www.w3.org/2000/svg"
   xmlns="http://www.w3.org/2000/svg"
   xmlns:sodipodi="http://sodipodi.sourceforge.net/DTD/sodipodi-0.dtd"
   xmlns:inkscape="http://www.inkscape.org/namespaces/inkscape"
   version="1.0"
   width="512px"
   height="512px"
   viewBox="0 0 5120 5120"
   preserveAspectRatio="xMidYMid meet"
   id="svg2"
   inkscape:version="0.91 r13725"
   sodipodi:docname="Google_Maps.svg">
  <metadata
     id="metadata36">
    <rdf:RDF>
      <cc:Work
         rdf:about="">
        <dc:format>image/svg+xml</dc:format>
        <dc:type
           rdf:resource="http://purl.org/dc/dcmitype/StillImage" />
      </cc:Work>
    </rdf:RDF>
  </metadata>
  <defs
     id="defs34" />
  <sodipodi:namedview
     pagecolor="#ffffff"
     bordercolor="#666666"
     borderopacity="1"
     objecttolerance="10"
     gridtolerance="10"
     guidetolerance="10"
     inkscape:pageopacity="0"
     inkscape:pageshadow="2"
     inkscape:window-width="1536"
     inkscape:window-height="801"
     id="namedview32"
     showgrid="false"
     inkscape:zoom="0.921875"
     inkscape:cx="89.316906"
     inkscape:cy="272.21569"
     inkscape:window-x="-8"
     inkscape:window-y="-8"
     inkscape:window-maximized="1"
     inkscape:current-layer="svg2" />
  <!-- generated by www.vectorizer.io -->
  <g
     id="layer1"
     fill="#802c27"
     stroke="none">
    <path
       d="M3618 1719 c-127 -18 -254 -120 -298 -237 -30 -80 -26 -215 10 -287 33 -68 117 -150 187 -183 52 -24 69 -27 168 -27 101 0 115 2 170 29 73 36 152 114 185 181 36 72 40 207 10 287 -61 164 -244 265 -432 237z"
       id="path5" />
  </g>
  <g
     id="layer2"
     fill="#c2c2c2"
     stroke="none">
    <path
       d="M4310 4478 l0 -53 -311 -311 -311 -311 30 -30 c22 -22 32 -43 36 -79 39 -307 143 -606 317 -906 66 -114 229 -358 240 -358 5 0 9 408 9 1050 0 578 -2 1050 -5 1050 -3 0 -5 -24 -5 -52z"
       id="path8" />
    <path
       d="M3170 3285 l-445 -445 184 -184 184 -185 41 57 c223 312 394 684 455 992 22 113 36 210 30 210 -2 0 -204 -200 -449 -445z"
       id="path10" />
  </g>
  <g
     id="layer3"
     fill="#fcdc43"
     stroke="none">
    <path
       d="M565 4826 c-94 -29 -160 -84 -205 -168 -29 -54 -34 -75 -38 -148 l-3 -85 1220 -1220 c671 -670 1222 -1217 1224 -1215 2 3 38 58 80 122 41 64 111 165 154 225 44 59 83 114 87 122 6 9 -44 66 -175 197 -146 146 -186 181 -197 172 -20 -17 -426 390 -410 410 9 11 -147 172 -783 808 l-794 794 -60 -1 c-33 0 -78 -6 -100 -13z"
       id="path13" />
  </g>
  <g
     id="layer4"
     fill="#fafafa"
     stroke="none">
    <path
       d="M3097 4033 l-807 -808 205 -205 205 -205 804 804 804 805 4 60 c6 110 -29 195 -112 270 -60 54 -116 76 -213 82 l-82 6 -808 -809z"
       id="path16" />
    <path
       d="M1115 2361 c-160 -46 -285 -151 -360 -304 -93 -190 -80 -392 35 -564 110 -165 274 -254 470 -255 142 -2 270 39 365 116 l30 25 -80 80 c-79 80 -79 81 -100 61 -74 -70 -239 -88 -347 -38 -239 111 -284 410 -88 591 72 67 134 90 240 91 92 0 167 -31 230 -94 39 -39 79 -108 80 -137 0 -10 -38 -13 -159 -13 l-159 0 -7 -62 c-4 -35 -5 -79 -3 -98 l3 -35 267 0 c146 0 270 4 275 8 15 16 8 209 -11 272 -24 84 -86 184 -147 239 -59 53 -169 109 -247 125 -78 16 -217 12 -287 -8z"
       id="path18" />
  </g>
  <g
     id="layer5"
     fill="#5184c4"
     stroke="none">
    <path
       d="M1520 4045 l795 -795 792 792 c436 436 793 794 793 795 0 2 -714 3 -1587 3 l-1588 0 795 -795z"
       id="path21" />
  </g>
  <g
     id="layer6"
     fill="#dc4b3e"
     stroke="none">
    <path
       d="M3653 3775 c-27 -21 -31 -32 -37 -92 -21 -202 -108 -489 -215 -708 -85 -172 -187 -337 -366 -586 -268 -374 -379 -570 -432 -764 -24 -91 -27 -116 -27 -280 0 -168 2 -186 28 -270 115 -381 404 -654 806 -763 86 -23 113 -26 275 -26 163 0 189 3 278 27 504 136 837 551 837 1046 0 167 -48 339 -148 536 -52 102 -211 349 -295 460 -21 26 -37 54 -37 61 0 8 -4 14 -9 14 -11 0 -174 244 -240 358 -167 289 -277 593 -310 861 -16 127 -52 169 -108 126z m121 -2060 c109 -18 235 -124 276 -233 30 -80 26 -215 -10 -287 -33 -67 -112 -145 -185 -181 -55 -27 -69 -29 -170 -29 -99 0 -116 3 -168 27 -70 33 -154 115 -187 183 -36 72 -40 207 -10 287 28 76 105 160 182 199 85 43 158 52 272 34z"
       id="path24" />
  </g>
  <g
     id="layer7"
     fill="#21a462"
     stroke="none">
    <path
       d="M322 2760 l3 -1665 26 -55 c45 -94 123 -159 224 -185 51 -13 193 -15 1092 -15 l1032 0 -34 73 c-19 39 -46 113 -61 162 -26 84 -28 103 -28 270 0 164 3 189 27 280 16 59 54 153 92 230 l64 130 -1220 1220 -1219 1220 2 -1665z m1080 -391 c78 -16 188 -72 247 -125 61 -55 123 -155 147 -239 19 -63 26 -256 11 -272 -5 -4 -129 -8 -275 -8 l-267 0 -3 35 c-2 19 -1 63 3 98 l7 62 159 0 c121 0 159 3 159 13 -1 29 -41 98 -80 137 -63 63 -138 94 -230 94 -106 -1 -168 -24 -240 -91 -95 -88 -142 -216 -119 -326 26 -124 97 -214 207 -265 108 -50 273 -32 347 38 21 20 21 19 100 -61 l80 -80 -30 -25 c-95 -77 -223 -118 -365 -116 -291 2 -522 209 -561 503 -16 114 0 202 56 316 75 153 200 258 360 304 70 20 209 24 287 8z"
       id="path27" />
  </g>
</svg>
