<?xml version="1.0" encoding="UTF-8" standalone="no"?>
<!-- Created with Inkscape (http://www.inkscape.org/) -->

<svg
   xmlns:dc="http://purl.org/dc/elements/1.1/"
   xmlns:cc="http://creativecommons.org/ns#"
   xmlns:rdf="http://www.w3.org/1999/02/22-rdf-syntax-ns#"
   xmlns:svg="http://www.w3.org/2000/svg"
   xmlns="http://www.w3.org/2000/svg"
   version="1.1"
   width="559.45789"
   height="132.73547"
   id="svg2"
   xml:space="preserve"><metadata
     id="metadata8"><rdf:RDF><cc:Work
         rdf:about=""><dc:format>image/svg+xml</dc:format><dc:type
           rdf:resource="http://purl.org/dc/dcmitype/StillImage" /><dc:title></dc:title></cc:Work></rdf:RDF></metadata><defs
     id="defs6" /><g
     transform="matrix(1.25,0,0,-1.25,-2289.1394,521.88465)"
     id="g10"><g
       transform="scale(1,-1)"
       id="g12"><path
         d="m 2039.1211,-380.57031 c 0,0 10e-4,0 10e-4,-0.004 0,0 -2.6817,9.50391 -2.6817,9.50391 0,0 2.6807,-9.5 2.6807,-9.5 z"
         id="path286"
         style="fill:#222222;fill-opacity:1;fill-rule:nonzero;stroke:none" /><path
         d="m 2052.9131,-359.9375 c 0,0 -2.9551,-0.0176 -2.9551,-0.0176 0,0 2.9551,0.0176 2.9551,0.0176 z"
         id="path288"
         style="fill:#222222;fill-opacity:1;fill-rule:nonzero;stroke:none" /><path
         d="m 2052.1563,-345.74414 c 0,0 0,0 0,0 0,0 -17.7051,0.0645 -17.7051,0.0645 0,0 17.7022,-0.0645 17.7022,-0.0645 z"
         id="path290"
         style="fill:#222222;fill-opacity:1;fill-rule:nonzero;stroke:none" /><path
         d="m 2055.8691,-359.91992 c 0,0 -2.956,-0.0176 -2.956,-0.0176 0,0 2.956,0.0176 2.956,0.0176 z"
         id="path292"
         style="fill:#222222;fill-opacity:1;fill-rule:nonzero;stroke:none" /><path
         d="m 2053.7119,-346.95117 c 0,0 3.084,-11.76172 3.084,-11.76172 0,0 -3.084,11.76367 -3.084,11.76367 0,0 0,-0.002 0,-0.002 z"
         id="path294"
         style="fill:#222222;fill-opacity:1;fill-rule:nonzero;stroke:none" /><path
         d="m 2118.8936,-401.11523 c 0,0 -5.7452,27.00781 -5.7452,27.00781 0,0 5.7452,-27.00781 5.7452,-27.00781 z"
         id="path296"
         style="fill:#222222;fill-opacity:1;fill-rule:nonzero;stroke:none" /><path
         d="m 2104.1221,-401.11523 c 0,0 -4.3614,20.17675 -4.3614,20.17675 0,0 4.3614,-20.17871 4.3614,-20.17871 0,0 0,0.002 0,0.002 z"
         id="path298"
         style="fill:#222222;fill-opacity:1;fill-rule:nonzero;stroke:none" /><path
         d="m 2117.9111,-402.33008 c 0,0 -12.2851,0 -12.2851,0 -0.6817,0 -1.3584,0.54688 -1.5039,1.21289 0,0 -4.3614,20.17871 -4.3614,20.17871 0,0 -4.3613,20.17676 -4.3613,20.17676 -0.1445,0.66602 -0.8203,1.21094 -1.5019,1.21094 0,0 -7.4541,0 -7.4541,0 0,0 -1.2412,0 -1.2412,0 -8.6026,0 -7.6075,-5.94922 -5.8457,-14.10059 0.017,-0.082 0.035,-0.16211 0.053,-0.24609 0,0 0.1933,-1.02832 0.1933,-1.02832 0.012,-0.0664 0.025,-0.13281 0.036,-0.19336 0,0 0.3926,-2.0918 0.3926,-2.0918 0,0 0.4209,-2.24219 0.4209,-2.24219 0.1279,-0.67578 0.3222,-1.66406 0.4492,-2.28515 0,0 1.9824,-9.6875 1.9824,-9.6875 0,0 1.9844,-9.6875 1.9844,-9.6875 0.1367,-0.66797 -0.3116,-1.2168 -0.9922,-1.2168 0,0 -12.6094,0 -12.6094,0 -0.6816,0 -1.3564,0.54883 -1.4961,1.21485 0,0 -2.7109,12.86328 -2.7109,12.86328 0,0 -2.711,12.86132 -2.711,12.86132 0,0.006 0,0.0137 0,0.0195 0,0 -0.2519,1.19531 -0.2519,1.19531 -3.1231,14.25781 -2.2949,27.85351 14.6777,28.2793 0.2774,0.008 0.4922,0.01 0.4922,0.01 0,0 26.6416,0 26.6416,0 0.6816,0 1.3564,-0.54687 1.499,-1.21484 0,0 5.7451,-27.00489 5.7451,-27.00489 0,0 5.7452,-27.00878 5.7452,-27.00878 0.1416,-0.66797 -0.3008,-1.21485 -0.9825,-1.21485"
         id="path300"
         style="fill:#222222;fill-opacity:1;fill-rule:nonzero;stroke:none" /><path
         d="m 2166.917,-359.41016 c 0.6816,0 1.1289,0.54688 0.9922,1.21485 0,0 -1.1934,5.83008 -1.1934,5.83008"
         id="path302"
         style="fill:#222222;fill-opacity:1;fill-rule:nonzero;stroke:none" /><path
         d="m 2165.5225,-346.53125 c 0,0 1.1933,-5.83398 1.1933,-5.83398 0,0 -1.1933,5.83593 -1.1933,5.83593 0,-0.002 0,-0.002 0,-0.002"
         id="path304"
         style="fill:#222222;fill-opacity:1;fill-rule:nonzero;stroke:none" /><path
         d="m 2164.0322,-345.30469 c 0,0 0.01,-0.002 0.01,-0.002 -3.6152,0.0293 -14.4785,0.11133 -22.6445,0.11133 9.9375,0 22.6386,-0.10938 22.6386,-0.10938"
         id="path306"
         style="fill:#222222;fill-opacity:1;fill-rule:nonzero;stroke:none" /><path
         d="m 2134.0596,-366.91992 c -0.01,-0.63867 0.7168,-1.73731 1.4004,-1.73731 0,0 -1.5352,-0.0264 -1.5352,-0.0264 -0.6914,6.95312 0.1348,1.76367 0.1348,1.76367"
         id="path308"
         style="fill:#222222;fill-opacity:1;fill-rule:nonzero;stroke:none" /><path
         d="m 2142.5068,-345.19727 c -0.078,0 -0.1582,0 -0.2363,0.002 0.078,-0.002 0.1582,-0.002 0.2363,-0.002"
         id="path310"
         style="fill:#222222;fill-opacity:1;fill-rule:nonzero;stroke:none" /><path
         d="m 2166.917,-359.41016 c 0.6816,0 1.1289,0.54688 0.9922,1.21485 0,0 -1.1934,5.83008 -1.1934,5.83008 0,0 -0.1953,0.95117 -0.1953,0.95117"
         id="path312"
         style="fill:#222222;fill-opacity:1;fill-rule:nonzero;stroke:none" /><path
         d="m 2148.3232,-345.21094 c 0,0 -0.051,0 -0.051,0 0,0 0.051,0 0.051,0 z"
         id="path314"
         style="fill:#222222;fill-opacity:1;fill-rule:nonzero;stroke:none" /><path
         d="m 2145.3096,-345.20117 c 0,0 -0.1758,0 -0.1758,0 0,0 0.1758,0 0.1758,0 z"
         id="path316"
         style="fill:#222222;fill-opacity:1;fill-rule:nonzero;stroke:none" /><path
         d="m 2144.3897,-345.19922 c -0.098,0 -0.1934,0 -0.2891,0.002 0.096,-0.002 0.1914,-0.002 0.2891,-0.002"
         id="path318"
         style="fill:#222222;fill-opacity:1;fill-rule:nonzero;stroke:none" /><path
         d="m 2143.4522,-345.19727 c 0,0 -0.254,0 -0.254,0 0,0 0.254,0 0.254,0 z"
         id="path320"
         style="fill:#222222;fill-opacity:1;fill-rule:nonzero;stroke:none" /><path
         d="m 2145.1338,-345.20117 c -0.2481,0 -0.4981,0.002 -0.7441,0.002 0.246,0 0.496,-0.002 0.7441,-0.002"
         id="path322"
         style="fill:#222222;fill-opacity:1;fill-rule:nonzero;stroke:none" /><path
         d="m 2148.2725,-345.21094 c -0.9942,0.004 -1.9864,0.008 -2.9629,0.01 0.9765,-0.002 1.9707,-0.006 2.9629,-0.01"
         id="path324"
         style="fill:#222222;fill-opacity:1;fill-rule:nonzero;stroke:none" /><path
         d="m 2164.0381,-345.30664 c 0,0 0,0 0,0 -2.6503,0.0215 -9.1933,0.0703 -15.7168,0.0957 6.5215,-0.0234 13.0645,-0.0742 15.7149,-0.0957"
         id="path326"
         style="fill:#222222;fill-opacity:1;fill-rule:nonzero;stroke:none" /><path
         d="m 2165.5225,-346.5293 c 0,0 0.998,-4.88476 0.998,-4.88476 0,0 -1,4.88867 -1,4.88867 0,-0.002 0,-0.002 0,-0.004"
         id="path328"
         style="fill:#222222;fill-opacity:1;fill-rule:nonzero;stroke:none" /><path
         d="m 2144.1006,-345.19727 c 0,0 -0.6484,0 -0.6484,0 0,0 0.6484,0 0.6484,0 z"
         id="path330"
         style="fill:#222222;fill-opacity:1;fill-rule:nonzero;stroke:none" /><path
         d="m 2142.2705,-345.19531 c 0,0 -0.8769,0 -0.8769,0 0,0 0.8769,0 0.8769,0 z"
         id="path332"
         style="fill:#222222;fill-opacity:1;fill-rule:nonzero;stroke:none" /><path
         d="m 2143.1982,-345.19727 c 0,0 -0.6914,0 -0.6914,0 0,0 0.6914,0 0.6914,0 z"
         id="path334"
         style="fill:#222222;fill-opacity:1;fill-rule:nonzero;stroke:none" /><path
         d="m 1963.4893,-366.77344 c 0,0 1.9101,-8.45898 1.9101,-8.45898 0,0 -2.1826,9.66992 -2.1826,9.66992 0,0 -2.0947,9.84961 -2.0947,9.84961 0,0 1.8359,-8.63477 1.8359,-8.63477 0.1416,-0.66797 0.3818,-1.75976 0.5313,-2.42578"
         id="path336"
         style="fill:#222222;fill-opacity:1;fill-rule:nonzero;stroke:none" /><path
         d="m 1986.335,-402.47266 c 0,0 -13.4922,0 -13.4922,0 -0.6817,0 -1.3633,0.54493 -1.5147,1.20899 0,0 -1.2793,5.64648 -1.2793,5.64648 0,0 -1.2783,5.64844 -1.2783,5.64844 -0.1514,0.66406 0.2832,1.20898 0.9649,1.20898 0,0 13.5966,0 13.5966,0 0.6817,0 1.3604,-0.54492 1.5059,-1.21093 0,0 1.2353,-5.64649 1.2353,-5.64649 0,0 1.2383,-5.64258 1.2383,-5.64258 0,0 0,-0.002 0,-0.002 0.1446,-0.66601 -0.2929,-1.21094 -0.9765,-1.21094"
         id="path338"
         style="fill:#222222;fill-opacity:1;fill-rule:nonzero;stroke:none" /><path
         d="m 1983.3975,-383.68945 c 0,0 0,-0.002 0,-0.002 0,0 -3.9571,18.30762 -3.9571,18.30762 0,0 3.9571,-18.30566 3.9571,-18.30566 z"
         id="path340"
         style="fill:#222222;fill-opacity:1;fill-rule:nonzero;stroke:none" /><path
         d="m 1944.2041,-323.03516 c 0,0 6.7988,0.0879 11.1231,0.0879 -3.2852,0 -8.709,-0.0605 -11.129,-0.0898 0,0 0,0.002 0.01,0.002"
         id="path342"
         style="fill:#222222;fill-opacity:1;fill-rule:nonzero;stroke:none" /><path
         d="m 1967.3086,-383.69141 c 0,0 -1.9102,8.45899 -1.9102,8.45899 0,0 1.9102,-8.45899 1.9102,-8.45899 z"
         id="path344"
         style="fill:#222222;fill-opacity:1;fill-rule:nonzero;stroke:none" /><path
         d="m 1982.419,-384.90234 c 0,0 -13.5967,0 -13.5967,0 -0.6817,0 -1.3623,0.54492 -1.5137,1.21093 0,0 -1.9102,8.45899 -1.9102,8.45899 0,0 -1.9091,8.45898 -1.9091,8.45898 -0.1504,0.66602 -0.3887,1.75879 -0.5313,2.42578 0,0 -1.834,8.63477 -1.834,8.63477 0,0 -1.8359,8.63476 -1.8359,8.63476 -0.1416,0.66602 -0.4346,1.74219 -0.6524,2.38868 0,0 -2.541,7.55859 -6.8125,7.47265 -0.1796,-0.004 -0.3574,-0.006 -0.5332,-0.01 -2.0683,-0.0391 -3.6933,-0.0684 -3.6933,-0.0684 0,0 0,0 0,0 -0.6797,-0.01 -1.3653,0.52148 -1.5244,1.18457 0,0 0,0 0,0 0,0 -1.4102,5.92676 -1.4102,5.92676 0,0 -1.4072,5.92578 -1.4072,5.92578 -0.1582,0.66211 0.2685,1.20898 0.9463,1.2207 2.4209,0.0293 7.8467,0.0898 11.1299,0.0898 10.6679,0 16.29,-5.91015 19.8964,-22.91796 0,0 4.2178,-19.51856 4.2178,-19.51856 0,0 3.957,-18.30762 3.957,-18.30762 0.1436,-0.66601 -0.2968,-1.21093 -0.9794,-1.21093"
         id="path346"
         style="fill:#222222;fill-opacity:1;fill-rule:nonzero;stroke:none" /><path
         d="m 2175.583,-345.88672 c -0.6816,0 -1.123,-0.54687 -0.9805,-1.21484 0,0 10.2286,-47.91114 10.2286,-47.91114"
         id="path348"
         style="fill:#222222;fill-opacity:1;fill-rule:nonzero;stroke:none" /><path
         d="m 2189.7998,-347.10352 c 0,0 4.1367,-20.44921 4.1367,-20.44921 0,0 -4.1367,20.44921 -4.1367,20.44921 z"
         id="path350"
         style="fill:#222222;fill-opacity:1;fill-rule:nonzero;stroke:none" /><path
         d="m 2174.7529,-346.49414 c -0.084,-0.33399 -0.035,-1.15234 0.1094,-1.82031 0,0 4.8555,-22.74219 4.8555,-22.74219 0,0 -5.1153,23.95508 -5.1153,23.95508 -0.1425,0.66797 0.2989,1.21484 0.9805,1.21484 0,0 1.2422,0 1.2422,0 -0.6816,0 -1.9902,-0.27344 -2.0723,-0.60742"
         id="path352"
         style="fill:#222222;fill-opacity:1;fill-rule:nonzero;stroke:none" /><path
         d="m 2188.9893,-346.16016 c -0.3711,0.15039 -1.2344,0.27344 -1.918,0.27344 0,0 1.2422,0 1.2422,0 0.6816,0 1.3515,-0.54687 1.4883,-1.2168 0,0 0.2441,-1.21484 0.2441,-1.21484 -0.1348,0.66797 -0.6855,2.00781 -1.0566,2.1582"
         id="path354"
         style="fill:#222222;fill-opacity:1;fill-rule:nonzero;stroke:none" /><path
         d="m 2191.8682,-357.32813 c 0,0 1.8261,-9.02539 1.8261,-9.02539 0,0.006 0,0.0147 0,0.0186 0,0 -1.8222,9.00683 -1.8222,9.00683 z"
         id="path356"
         style="fill:#222222;fill-opacity:1;fill-rule:nonzero;stroke:none" /><path
         d="m 2232.2275,-391.80469 c 0,0 0.5625,2.32813 0.5625,2.32813 0.1563,0.66601 -0.2753,1.20703 -0.955,1.20898"
         id="path358"
         style="fill:#222222;fill-opacity:1;fill-rule:nonzero;stroke:none" /><path
         d="m 2190.0459,-348.31836 c 0,0 1.8223,-9.00977 1.8223,-9.00977 0,0 -1.8223,9.00977 -1.8223,9.00977 z"
         id="path360"
         style="fill:#222222;fill-opacity:1;fill-rule:nonzero;stroke:none" /><path
         d="m 2231.6689,-394.18945 c 0,0 0,0 0,0 0,0 0.5586,2.38574 0.5586,2.38574 0,0 -0.5586,-2.38574 -0.5586,-2.38574 z"
         id="path362"
         style="fill:#222222;fill-opacity:1;fill-rule:nonzero;stroke:none" /><path
         d="m 2193.6943,-366.35352 c 0.1348,-0.66796 0.3594,-1.75 0.502,-2.41211 0,0 1.9492,-9.13671 1.9492,-9.13671 0,0 -2.209,10.34961 -2.209,10.34961 0,0 -0.2422,1.19921 -0.2422,1.19921 z"
         id="path364"
         style="fill:#222222;fill-opacity:1;fill-rule:nonzero;stroke:none" /><path
         d="m 2184.9971,-395.79883 c -0.1367,0.64551 -0.3106,1.45899 -0.4258,1.99805 0,0 -4.8535,22.74414 -4.8535,22.74414 0,0 5.1133,-23.95703 5.1133,-23.95703 0,0 0.166,-0.78516 0.166,-0.78516 z"
         id="path366"
         style="fill:#222222;fill-opacity:1;fill-rule:nonzero;stroke:none" /><path
         d="m 2232.79,-389.47656 c 0,0 -0.5625,-2.32813 -0.5625,-2.32813 0,0 -0.5586,-2.38476 -0.5586,-2.38476 0,0 -0.2812,-1.20703 -0.2812,-1.20703 -1.1055,-4.29102 -4.3477,-6.76758 -11.3867,-6.76758 0,0 -10.961,-0.0107 -10.961,-0.0107 0,0 -10.0937,-0.0127 -10.0937,-0.0127 0,0 -0.8652,0 -0.8652,0 0,0 -10.4922,0 -10.4922,0 -0.6817,0 -1.3555,0.54492 -1.4961,1.21289 0,0 0,0 0,0 0,0 -0.5019,2.37305 -0.5019,2.37305 0,0 -0.5918,2.80371 -0.5918,2.80371 0,0 -0.166,0.78418 -0.166,0.78418 0,0 -5.1133,23.95703 -5.1133,23.95703 0,0 -4.8555,22.74219 -4.8555,22.74219 -0.1445,0.66797 -0.1934,1.48632 -0.1094,1.82031 0.082,0.33398 1.3907,0.60742 2.0723,0.60742 0,0 10.2461,0 10.2461,0 0.6836,0 1.5469,-0.12305 1.918,-0.27344 0.3711,-0.14941 0.9218,-1.49023 1.0566,-2.1582 0,0 1.8223,-9.00977 1.8223,-9.00977 0,0 1.8222,-9.00683 1.8222,-9.00683 0,-0.004 0,-0.0127 0,-0.0186 0,0 0.2422,-1.19824 0.2422,-1.19824 0,0 2.209,-10.35058 2.209,-10.35058 0,0 1.9512,-9.13965 1.9512,-9.13965 0.1445,-0.66406 0.8164,-1.20703 1.498,-1.20899 0,0 32.2403,-0.0166 32.2403,-0.0166 0.6797,-0.002 1.1113,-0.54297 0.955,-1.20898"
         id="path368"
         style="fill:#222222;fill-opacity:1;fill-rule:nonzero;stroke:none" /><path
         d="m 2274.29,-410.52734 c -0.6836,0.005 -1.7988,0.009 -2.4824,0.009 0,0 -10.3183,0 -10.3183,0 -0.6836,0 -1.5567,0.46191 -1.9414,1.02441 0,0 -22.8204,33.42969 -22.8204,33.42969 -0.3847,0.56445 -0.8242,0.48047 -0.9746,-0.18262 0,0 -1.6797,-7.36523 -1.6797,-7.36523 -0.1503,-0.66602 -0.8339,-1.20899 -1.5156,-1.20899 0,0 -14.6699,0 -14.6699,0 -0.6836,0 -1.0879,0.53516 -0.9004,1.19043 0,0 6.5723,23.02734 6.5723,23.02734 0.1875,0.65625 0.2011,1.73438 0.033,2.39454 0,0 -2.8672,11.14453 -2.8672,11.14453 -0.168,0.66211 0.25,1.20312 0.9336,1.20312 0,0 14.498,0 14.498,0 0.6817,0 1.3789,-0.54101 1.5488,-1.20312 0,0 2.8653,-11.14453 2.8653,-11.14453 0.1699,-0.66016 0.6445,-1.64844 1.0547,-2.19336 0,0 37.0449,-49.167 37.0449,-49.167 0.4121,-0.54492 0.1895,-0.9873 -0.4922,-0.98339 0,0 -3.8887,0.0254 -3.8887,0.0254 z"
         id="path370"
         style="fill:#222222;fill-opacity:1;fill-rule:nonzero;stroke:none" /><path
         d="m 2157.751,-381.6875 c 0,0 0,-0.0137 0,-0.0137 -0.086,0.74121 -0.7675,1.28418 -1.4492,1.28418 0,0 -18.5996,0 -18.5996,0 -0.6426,0 -0.9687,-0.43848 -0.875,-0.97754 0.01,-0.0156 0.01,-0.0283 0.018,-0.043 0,0 -0.01,0.002 -0.012,0.006 0,-0.0215 0,-0.041 0.01,-0.0625 0,0 0.035,-0.12988 0.086,-0.31641 1.7754,-4.72265 5.3945,-7.82129 12.1933,-7.82129 7.6563,0 9.1504,3.73926 8.6309,7.94434 m -5.457,-21.4668 c -23.8731,0 -29.5294,14.49024 -32.7032,29.11524 -3.1738,14.90625 -2.9004,28.84375 21.8047,28.84375 0,0 0.877,0 0.877,0 0.076,-0.002 0.1562,-0.002 0.2343,-0.002 0,0 0.6914,0 0.6914,0 0,0 0.254,0 0.254,0 0,0 0.6484,0 0.6484,0 0.096,-0.002 0.1914,-0.002 0.2891,-0.002 0.246,0 0.496,-0.002 0.7441,-0.002 0,0 0.1758,0 0.1758,0 0.9765,-0.002 1.9687,-0.006 2.9629,-0.01 0,0 0.051,0 0.051,0 6.5235,-0.0254 13.0665,-0.0742 15.7168,-0.0957 0.6778,-0.01 1.3418,-0.55664 1.4825,-1.21875 0,0 1,-4.88867 1,-4.88867 0,0 0.1933,-0.95117 0.1933,-0.95117 0,0 1.1934,-5.83008 1.1934,-5.83008 0.1367,-0.66797 -0.3106,-1.21485 -0.9922,-1.21485 0,0 -22.209,0 -22.209,0 -8.834,0 -11.457,-2.34765 -10.4902,-9.24804 0,0 35.5019,0 35.5019,0 0,0 0,0.004 0,0.004 0.01,0 0.016,-0.004 0.023,-0.004 0.5645,-0.009 1.086,-0.39844 1.293,-0.91602 0.039,-0.0986 0.072,-0.20312 0.086,-0.30957 0,0 0,0.004 0,0.004 5.2715,-19.88379 3.7598,-33.27442 -18.8222,-33.27442"
         id="path372"
         style="fill:#222222;fill-opacity:1;fill-rule:nonzero;stroke:none" /><path
         d="m 2039.458,-381.76367 c 0,0 -0.3359,1.18945 -0.3359,1.18945 0,0.004 -10e-4,0.004 -10e-4,0.004 0,0 -2.6807,9.5 -2.6807,9.5 0,0 -2.6797,9.49804 -2.6797,9.49804 -0.1855,0.65625 -0.8945,1.19336 -1.5781,1.19336 0,0 -14.1885,0 -14.1885,0 -10.7626,0 -13.3837,-8.41797 -10.7626,-20.83398 2.621,-12.69824 7.7578,-20.59375 18.3505,-21.39258 14.4756,-1.0918 17.3711,9.08984 13.876,20.8418 m 9.7305,20.65429 c 0,0 6.6894,-16.24218 8.209,-25.625 2.0703,-12.55761 -4.2149,-30.77343 -28.502,-30.77343 -24.1504,0 -34.6367,17.39062 -38.6387,36.29492 -4.0009,19.04101 1.2413,35.74023 25.2539,35.60351 0,0 18.9434,-0.0713 18.9434,-0.0713 0,0 17.7051,-0.0635 17.7051,-0.0635 0.6816,-0.006 1.3789,-0.54688 1.5527,-1.20508 0,0 3.084,-11.76367 3.084,-11.76367 0.1719,-0.66016 -0.2451,-1.20313 -0.9268,-1.20703 0,0 -2.956,-0.0176 -2.956,-0.0176 0,0 -2.9551,-0.0176 -2.9551,-0.0176 -0.5801,-0.004 -0.9121,-0.3789 -0.8418,-0.87695 0.013,-0.0899 0.033,-0.18164 0.072,-0.27735"
         id="path374"
         style="fill:#222222;fill-opacity:1;fill-rule:nonzero;stroke:none" /><path
         d="m 2168.7373,-371.98047 c 0,0.44922 -0.3633,0.81445 -0.8125,0.81445 -0.4512,0 -0.8164,-0.36523 -0.8164,-0.81445 0,-0.44922 0.3652,-0.8125 0.8164,-0.8125 0.4492,0 0.8125,0.36328 0.8125,0.8125"
         id="path376"
         style="fill:#222222;fill-opacity:1;fill-rule:nonzero;stroke:none" /><path
         d="m 1831.3115,-396.08789 c 0,0 0,29.43555 0,29.43555 0,21.6748 17.7783,39.24511 39.709,39.24511 0,0 9.9277,0 9.9277,0 21.9317,0 39.709,-17.57031 39.709,-39.24511 0,0 0,-29.43555 0,-29.43555 0,-5.41992 -4.4443,-9.8125 -9.9277,-9.8125 0,0 -69.4902,0 -69.4902,0 -5.4834,0 -9.9278,4.39258 -9.9278,9.8125"
         id="path378"
         style="fill:#fea620;fill-opacity:1;fill-rule:evenodd;stroke:none" /><path
         d="m 1846.2022,-371.55859 c 0,16.25586 13.3339,29.43554 29.7832,29.43554 16.4472,0 29.7812,-13.17968 29.7812,-29.43554 0,0 -14.8926,0 -14.8926,0 0,8.12695 -6.666,14.71777 -14.8886,14.71777 -8.2247,0 -14.8907,-6.59082 -14.8907,-14.71777 0,0 0,-14.71875 0,-14.71875 0,0 -14.8925,0 -14.8925,0 0,0 0,14.71875 0,14.71875 z"
         id="path380"
         style="fill:#ffffff;fill-opacity:1;fill-rule:evenodd;stroke:none" /><path
         d="m 1894.5986,-394.37109 c 0,0 -3.4746,14.22754 -3.4746,14.22754 0,0 14.3936,3.67773 14.3936,3.67773 0,0 3.7236,-14.22656 3.7236,-14.22656 0,0 -14.6426,-3.67871 -14.6426,-3.67871 z"
         id="path382"
         style="fill:#ffffff;fill-opacity:1;fill-rule:evenodd;stroke:none" /><path
         d="m 2102.3164,-315.82715 c 0,0 -2.3516,0 -2.3516,0 0,0 -0.3359,-0.67187 -0.3359,-0.67187 0,0 -1.9043,0.81152 -3.1924,0.81152 -3.6123,0 -3.5,-2.93945 -2.8564,-5.87988 0,0 1.2041,-5.71192 1.2041,-5.71192 0,0 2.6885,0 2.6885,0 0,0 -0.5323,4.42383 -0.5323,4.42383 0,0 -0.2519,1.34473 -0.2519,1.34473 -0.3643,1.67969 -0.5879,2.91113 1.1758,2.91113 0,0 2.0166,0 2.0166,0 0,0 1.8759,-8.67969 1.8759,-8.67969 0,0 2.9961,0 2.9961,0 0,0 -2.4365,11.45215 -2.4365,11.45215 z"
         id="path384"
         style="fill:#fea620;fill-opacity:1;fill-rule:nonzero;stroke:none" /><path
         d="m 2115.5322,-324.56348 c 0,0 -3.2763,0.0283 -4.1718,0.0283 -1.9043,0 -2.1006,0.58789 -2.2403,1.20411 0,0 -0.1123,0.55957 -0.1123,0.55957 0,0 6.0479,0.44824 6.0479,0.44824 0,0 0.028,1.93164 -0.2237,3.02441 -0.3642,1.81934 -2.2402,3.66797 -5.6279,3.66797 -1.6797,0 -4.3965,-0.64453 -4.3965,-0.64453 0,0 0.4766,-2.21191 0.4766,-2.21191 0,0 3.2754,0 4.1719,0 1.8476,0 2.0996,-0.50391 2.2119,-1.00782 0,0 0.1396,-0.72754 0.1396,-0.72754 0,0 -5.9355,-0.44824 -5.9355,-0.44824 0,0 -0.2237,-1.48437 0.084,-2.96777 0.4482,-2.0166 2.2959,-3.75196 5.6836,-3.75196 1.6806,0 4.3964,0.61524 4.3964,0.61524 0,0 -0.5039,2.21191 -0.5039,2.21191 z"
         id="path386"
         style="fill:#fea620;fill-opacity:1;fill-rule:nonzero;stroke:none" /><path
         d="m 2122.8682,-324.70313 c -1.5117,0 -2.295,0.78418 -2.6036,2.1836 0,0 4.3126,-0.36328 4.3126,-0.36328 0.1953,-0.95215 0,-1.82032 -1.709,-1.82032 z m -3.0244,4.25586 c -0.1963,1.40039 0.3369,1.87598 2.1279,1.87598 0,0 4.5078,0 4.5078,0 0,0 -0.4473,2.12793 -0.4473,2.12793 0,0 -2.7168,0.75586 -4.7324,0.75586 -5.0117,0 -5.0683,-2.82715 -4.4238,-5.85156 0.6435,-2.96778 1.792,-5.90821 6.6367,-5.90821 4.6758,0 4.9004,2.82813 3.7519,7 0,0 -7.4208,0 -7.4208,0 z"
         id="path388"
         style="fill:#fea620;fill-opacity:1;fill-rule:nonzero;stroke:none" /><path
         d="m 2135.2725,-322.29492 c 0.3925,-1.79199 0.2793,-2.12793 -0.6446,-2.12793 0,0 -1.4004,0 -1.4004,0 0,0 -0.8945,4.20019 -0.8945,4.20019 0,0 -1.373,4.39551 -1.373,4.39551 0,0 -2.6035,0 -2.6035,0 0,0 2.1269,-9.96777 2.1269,-9.96777 0,0 0.3086,-1.45606 0.3086,-1.45606 0,0 2.3809,0 2.3809,0 0,0 0.3066,0.67188 0.3066,0.67188 0,0 1.373,-0.81153 2.7168,-0.81153 2.8555,0 2.6328,2.15528 2.0156,5.09571 0,0 -2.9394,0 -2.9394,0 z"
         id="path390"
         style="fill:#fea620;fill-opacity:1;fill-rule:nonzero;stroke:none" /><path
         d="m 2149.833,-328.70703 c -1.1484,0 -1.8769,-0.33594 -1.5976,-1.73633 0.3086,-1.39941 1.205,-1.73535 2.3242,-1.73535 1.1211,0 1.8769,0.33594 1.5683,1.73535 -0.2793,1.37207 -1.1757,1.73633 -2.2949,1.73633 z m -1.2324,12.87988 c 0,0 -2.5762,0 -2.5762,0 0,0 0.5039,-4.48047 0.5039,-4.48047 0,0 0.8965,-4.14355 0.8965,-4.14355 0,0 -1.793,-0.3916 -1.793,-0.3916 0,0 0.5039,-2.43653 0.5039,-2.43653 0,0 4.9004,0 4.9004,0 0,0 -2.4355,11.45215 -2.4355,11.45215 z"
         id="path392"
         style="fill:#fea620;fill-opacity:1;fill-rule:nonzero;stroke:none" /><path
         d="m 2160.9482,-315.82715 c 0,0 -2.6894,0 -2.6894,0 0,0 0.5039,-4.42383 0.5039,-4.42383 0,0 0.2813,-1.25976 0.2813,-1.25976 0.3632,-1.68067 0.5585,-2.91211 -1.2051,-2.91211 0,0 -2.0157,0 -2.0157,0 0,0 -1.8476,8.5957 -1.8476,8.5957 0,0 -2.9961,0 -2.9961,0 0,0 2.4355,-11.45215 2.4355,-11.45215 0,0 2.3516,0 2.3516,0 0,0 0.3652,0.67188 0.3652,0.67188 0,0 1.875,-0.81153 3.1641,-0.81153 3.584,0 3.5,2.91211 2.8555,5.87989 0,0 -1.2032,5.71191 -1.2032,5.71191 z"
         id="path394"
         style="fill:#fea620;fill-opacity:1;fill-rule:nonzero;stroke:none" /><path
         d="m 2171.8076,-324.84277 c 0,0 -3.2187,0.3916 -3.2187,0.3916 0,0 -0.9239,4.36816 -0.9239,4.36816 -0.2519,1.2041 -0.2519,1.54004 0.8106,1.54004 0.5879,0 2.1562,0 2.1562,0 0,0 -0.4472,2.2959 -0.4472,2.2959 0,0 -1.961,0.58789 -2.8008,0.58789 -3.3027,0 -3.2754,-1.82031 -2.6875,-4.53613 0,0 0.8965,-4.28418 0.8965,-4.28418 0,0 -1.793,-0.3916 -1.793,-0.3916 0,0 0.5332,-2.43555 0.5332,-2.43555 0,0 1.875,0 1.875,0 0,0 1.0645,-2.88477 1.0645,-2.88477 0,0 2.5488,0 2.5488,0 0,0 -0.6172,2.88477 -0.6172,2.88477 0,0 3.1367,0 3.1367,0 0,0 -0.5332,2.46387 -0.5332,2.46387 z"
         id="path396"
         style="fill:#fea620;fill-opacity:1;fill-rule:nonzero;stroke:none" /><path
         d="m 2178.501,-324.70313 c -1.5117,0 -2.2969,0.78418 -2.6055,2.1836 0,0 4.3125,-0.36328 4.3125,-0.36328 0.1973,-0.95215 0,-1.82032 -1.707,-1.82032 z m -3.0254,4.25586 c -0.1953,1.40039 0.3359,1.87598 2.1289,1.87598 0,0 4.5078,0 4.5078,0 0,0 -0.4473,2.12793 -0.4473,2.12793 0,0 -2.7168,0.75586 -4.7324,0.75586 -5.0117,0 -5.0683,-2.82715 -4.4238,-5.85156 0.6445,-2.96778 1.791,-5.90821 6.6348,-5.90821 4.6777,0 4.9004,2.82813 3.7519,7 0,0 -7.4199,0 -7.4199,0 z"
         id="path398"
         style="fill:#fea620;fill-opacity:1;fill-rule:nonzero;stroke:none" /><path
         d="m 2190.9033,-322.29492 c 0.3926,-1.79199 0.2793,-2.12793 -0.6445,-2.12793 0,0 -1.3984,0 -1.3984,0 0,0 -0.8965,4.20019 -0.8965,4.20019 0,0 -1.3731,4.39551 -1.3731,4.39551 0,0 -2.6035,0 -2.6035,0 0,0 2.1289,-9.96777 2.1289,-9.96777 0,0 0.3067,-1.45606 0.3067,-1.45606 0,0 2.3808,0 2.3808,0 0,0 0.3086,0.67188 0.3086,0.67188 0,0 1.3711,-0.81153 2.7149,-0.81153 2.8554,0 2.6328,2.15528 2.0156,5.09571 0,0 -2.9395,0 -2.9395,0 z"
         id="path400"
         style="fill:#fea620;fill-opacity:1;fill-rule:nonzero;stroke:none" /><path
         d="m 2204.2881,-329.01465 c 0,0 -1.5684,0 -2.1563,0 -1.1484,0 -1.2324,0.72754 -1.455,1.76367 0,0 2.9121,0 2.9121,0 0,0 -0.5039,2.43555 -0.5039,2.43555 0,0 -3.0801,0.41992 -3.0801,0.41992 0,0 -1.8496,8.62403 -1.8496,8.62403 0,0 -1.3985,4.45214 -1.3985,4.45214 0,0 -2.5488,0 -2.5488,0 0,0 0.9531,-4.47949 0.9531,-4.47949 0,0 1.8477,-8.62402 1.8477,-8.62402 0,0 -1.793,-0.39258 -1.793,-0.39258 0,0 0.5039,-2.43555 0.5039,-2.43555 0,0 1.877,0 1.877,0 0.5879,-2.66015 1.4844,-4.78808 4.7031,-4.78808 0.8399,0 2.4922,0.70019 2.4922,0.70019 0,0 -0.5039,2.32422 -0.5039,2.32422 z"
         id="path402"
         style="fill:#fea620;fill-opacity:1;fill-rule:nonzero;stroke:none" /><path
         d="m 2209.3565,-324.47949 c -1.6797,0 -2.2696,1.09277 -2.6602,2.94043 -0.3926,1.87597 -0.252,2.88379 1.4277,2.88379 0,0 2.3516,0 2.3516,0 0,0 1.2051,-5.82422 1.2051,-5.82422 0,0 -2.3242,0 -2.3242,0 z m 5.039,1.62402 c 0,0 -1.4844,7.02832 -1.4844,7.02832 0,0 -2.3242,0 -2.3242,0 0,0 -0.3633,-0.78418 -0.3633,-0.78418 0,0 -2.0156,0.92383 -3.5,0.92383 -3.5566,0 -3.7519,-2.82715 -3.1074,-5.85156 0.6153,-2.96778 2.043,-5.90821 5.627,-5.90821 2.3242,0 5.9922,0.64454 5.9922,0.64454 0,0 -0.8399,3.94726 -0.8399,3.94726 z"
         id="path404"
         style="fill:#fea620;fill-opacity:1;fill-rule:nonzero;stroke:none" /><path
         d="m 2225.8486,-324.50684 c 0,0 -3.4453,0 -3.4453,0 -1.7363,0 -2.7715,1.23145 -3.164,2.9961 -0.3633,1.73535 0.1972,2.93945 1.9882,2.93945 0,0 3.584,0 3.584,0 0,0 -0.4765,2.24024 -0.4765,2.24024 0,0 -2.5196,0.67187 -4.4512,0.67187 -3.5566,0 -4.3672,-2.85547 -3.7246,-5.85156 0.6445,-3.02442 2.6601,-5.93653 6.1328,-5.93653 1.707,0 4.0879,0.61622 4.0879,0.61622 0,0 -0.5313,2.32421 -0.5313,2.32421 z"
         id="path406"
         style="fill:#fea620;fill-opacity:1;fill-rule:nonzero;stroke:none" /><path
         d="m 2232.6982,-324.70313 c -1.5117,0 -2.2949,0.78418 -2.6035,2.1836 0,0 4.3125,-0.36328 4.3125,-0.36328 0.1953,-0.95215 0,-1.82032 -1.709,-1.82032 z m -3.0234,4.25586 c -0.1953,1.40039 0.3359,1.87598 2.127,1.87598 0,0 4.5097,0 4.5097,0 0,0 -0.4492,2.12793 -0.4492,2.12793 0,0 -2.7148,0.75586 -4.7324,0.75586 -5.0117,0 -5.0664,-2.82715 -4.4239,-5.85156 0.6446,-2.96778 1.793,-5.90821 6.6368,-5.90821 4.6758,0 4.9004,2.82813 3.7519,7 0,0 -7.4199,0 -7.4199,0 z"
         id="path408"
         style="fill:#fea620;fill-opacity:1;fill-rule:nonzero;stroke:none" /></g></g></svg>