<!DOCTYPE svg PUBLIC "-//W3C//DTD SVG 20010904//EN" "http://www.w3.org/TR/2001/REC-SVG-20010904/DTD/svg10.dtd">
<svg version="1.0" xmlns="http://www.w3.org/2000/svg" width="699px" height="699px" viewBox="0 0 6990 6990" preserveAspectRatio="xMidYMid meet">
<g id="layer1" fill="#1ed760" stroke="none">
 <path d="M3335 6984 c-22 -2 -112 -8 -200 -14 -198 -14 -310 -31 -491 -75 -1310 -321 -2337 -1400 -2584 -2715 -83 -440 -72 -1096 25 -1505 291 -1227 1233 -2212 2445 -2555 299 -84 559 -115 970 -115 388 0 621 26 905 100 457 119 868 324 1265 631 142 110 447 412 564 559 421 528 684 1170 738 1800 17 193 17 611 0 790 -19 203 -30 274 -67 430 -196 822 -678 1538 -1368 2033 -156 112 -305 200 -492 292 -395 193 -759 296 -1170 330 -142 11 -476 20 -540 14z m1664 -1887 c113 -59 144 -202 64 -297 -54 -65 -422 -256 -675 -349 -755 -281 -1615 -321 -2581 -121 -216 45 -254 63 -296 140 -48 87 -21 192 65 253 56 39 109 43 219 17 132 -31 405 -76 615 -101 252 -31 797 -34 1020 -6 509 64 937 200 1315 420 38 22 81 47 95 54 39 20 111 16 159 -10z m398 -925 c132 -68 184 -219 118 -340 -38 -69 -59 -86 -222 -178 -562 -318 -1264 -518 -2012 -575 -203 -15 -730 -7 -911 15 -377 45 -799 138 -904 200 -101 59 -147 177 -114 288 15 52 87 131 142 158 61 29 113 27 241 -8 658 -182 1420 -200 2155 -52 456 92 855 238 1211 443 52 30 108 59 124 65 41 16 124 8 172 -16z m448 -1076 c72 -33 119 -78 154 -147 40 -80 47 -133 27 -202 -36 -123 -92 -173 -326 -295 -961 -500 -2385 -703 -3660 -521 -270 38 -638 122 -750 170 -59 25 -133 101 -163 167 -63 138 7 313 155 388 86 44 128 42 348 -14 292 -76 568 -117 934 -143 221 -15 845 -6 1056 15 774 78 1428 264 1915 544 132 77 205 86 310 38z"/>
 </g>

</svg>