<?xml version="1.0" encoding="UTF-8" standalone="no"?>
<svg
   xmlns:dc="http://purl.org/dc/elements/1.1/"
   xmlns:cc="http://creativecommons.org/ns#"
   xmlns:rdf="http://www.w3.org/1999/02/22-rdf-syntax-ns#"
   xmlns:svg="http://www.w3.org/2000/svg"
   xmlns="http://www.w3.org/2000/svg"
   xmlns:sodipodi="http://sodipodi.sourceforge.net/DTD/sodipodi-0.dtd"
   xmlns:inkscape="http://www.inkscape.org/namespaces/inkscape"
   width="256px"
   height="263px"
   viewBox="0 0 256 263"
   version="1.1"
   preserveAspectRatio="xMidYMid"
   id="svg2"
   inkscape:version="0.91 r13725"
   sodipodi:docname="Unity.svg">
  <metadata
     id="metadata12">
    <rdf:RDF>
      <cc:Work
         rdf:about="">
        <dc:format>image/svg+xml</dc:format>
        <dc:type
           rdf:resource="http://purl.org/dc/dcmitype/StillImage" />
      </cc:Work>
    </rdf:RDF>
  </metadata>
  <defs
     id="defs10" />
  <sodipodi:namedview
     pagecolor="#ffffff"
     bordercolor="#666666"
     borderopacity="1"
     objecttolerance="10"
     gridtolerance="10"
     guidetolerance="10"
     inkscape:pageopacity="0"
     inkscape:pageshadow="2"
     inkscape:window-width="1920"
     inkscape:window-height="1017"
     id="namedview8"
     showgrid="false"
     inkscape:zoom="2.5380563"
     inkscape:cx="171.21751"
     inkscape:cy="158.36161"
     inkscape:window-x="1912"
     inkscape:window-y="-8"
     inkscape:window-maximized="1"
     inkscape:current-layer="svg2" />
  <path
     sodipodi:type="star"
     style="fill:#ffffff"
     id="path4152"
     sodipodi:sides="10"
     sodipodi:cx="143.75848"
     sodipodi:cy="104.19703"
     sodipodi:r1="39.830631"
     sodipodi:r2="42.228268"
     sodipodi:arg1="0.27285578"
     sodipodi:arg2="0.58701501"
     inkscape:flatsided="false"
     inkscape:rounded="0"
     inkscape:randomized="0"
     d="m 182.11559,114.93069 -3.19795,12.65566 -10.43669,7.84014 -10.026,8.35893 -13.05179,0.20827 -13.02446,0.86938 -10.68154,-7.50315 -11.04802,-6.95224 -4.2313,-12.34863 -4.85161,-12.11834 3.83515,-12.477345 3.19795,-12.655653 10.43669,-7.840142 10.026,-8.358931 13.05179,-0.208271 13.02446,-0.869382 10.68153,7.503152 11.04802,6.95224 4.2313,12.348627 4.85162,12.118345 z"
     transform="matrix(1.5839594,0,0,1.7331193,-59.521674,-78.756973)" />
  <path
     transform="matrix(1.5839594,0,0,1.7331193,-119.44001,-53.176812)"
     d="m 182.11559,114.93069 -3.19795,12.65566 -10.43669,7.84014 -10.026,8.35893 -13.05179,0.20827 -13.02446,0.86938 -10.68154,-7.50315 -11.04802,-6.95224 -4.2313,-12.34863 -4.85161,-12.11834 3.83515,-12.477345 3.19795,-12.655653 10.43669,-7.840142 10.026,-8.358931 13.05179,-0.208271 13.02446,-0.869382 10.68153,7.503152 11.04802,6.95224 4.2313,12.348627 4.85162,12.118345 z"
     inkscape:randomized="0"
     inkscape:rounded="0"
     inkscape:flatsided="false"
     sodipodi:arg2="0.58701501"
     sodipodi:arg1="0.27285578"
     sodipodi:r2="42.228268"
     sodipodi:r1="39.830631"
     sodipodi:cy="104.19703"
     sodipodi:cx="143.75848"
     sodipodi:sides="10"
     id="path4154"
     style="fill:#ffffff"
     sodipodi:type="star" />
  <path
     sodipodi:type="star"
     style="fill:#ffffff"
     id="path4156"
     sodipodi:sides="10"
     sodipodi:cx="143.75848"
     sodipodi:cy="104.19703"
     sodipodi:r1="39.830631"
     sodipodi:r2="42.228268"
     sodipodi:arg1="0.27285578"
     sodipodi:arg2="0.58701501"
     inkscape:flatsided="false"
     inkscape:rounded="0"
     inkscape:randomized="0"
     d="m 182.11559,114.93069 -3.19795,12.65566 -10.43669,7.84014 -10.026,8.35893 -13.05179,0.20827 -13.02446,0.86938 -10.68154,-7.50315 -11.04802,-6.95224 -4.2313,-12.34863 -4.85161,-12.11834 3.83515,-12.477345 3.19795,-12.655653 10.43669,-7.840142 10.026,-8.358931 13.05179,-0.208271 13.02446,-0.869382 10.68153,7.503152 11.04802,6.95224 4.2313,12.348627 4.85162,12.118345 z"
     transform="matrix(1.5839594,0,0,1.7331193,-69.795721,-24.778658)" />
  <path
     transform="matrix(1.5839594,0,0,1.7331193,-49.307602,-20.838635)"
     d="m 182.11559,114.93069 -3.19795,12.65566 -10.43669,7.84014 -10.026,8.35893 -13.05179,0.20827 -13.02446,0.86938 -10.68154,-7.50315 -11.04802,-6.95224 -4.2313,-12.34863 -4.85161,-12.11834 3.83515,-12.477345 3.19795,-12.655653 10.43669,-7.840142 10.026,-8.358931 13.05179,-0.208271 13.02446,-0.869382 10.68153,7.503152 11.04802,6.95224 4.2313,12.348627 4.85162,12.118345 z"
     inkscape:randomized="0"
     inkscape:rounded="0"
     inkscape:flatsided="false"
     sodipodi:arg2="0.58701501"
     sodipodi:arg1="0.27285578"
     sodipodi:r2="42.228268"
     sodipodi:r1="39.830631"
     sodipodi:cy="104.19703"
     sodipodi:cx="143.75848"
     sodipodi:sides="10"
     id="path4158"
     style="fill:#ffffff"
     sodipodi:type="star" />
  <g
     id="g4"
     fill="#222C37">
    <path
       d="M166.872326,131.23686 L212.781118,51.9623472 L234.965569,131.23686 L212.781118,210.493243 L166.872326,131.23686 L166.872326,131.23686 Z M144.495923,144.110517 L190.412179,223.373299 L110.445569,202.886567 L52.6751399,144.110517 L144.495923,144.110517 L144.495923,144.110517 Z M190.401515,39.0780261 L144.495923,118.352539 L52.6751399,118.352539 L110.445569,59.5732891 L190.401515,39.0780261 L190.401515,39.0780261 Z M255.940714,104.258913 L227.932619,0.0603519323 L123.392808,27.9852677 L107.918186,55.1924919 L76.5167858,54.9674802 L0,131.244325 L76.5167858,207.50304 L76.519985,207.50304 L107.907522,207.270564 L123.404539,234.477788 L227.932619,262.398438 L255.940714,158.219072 L240.035264,131.23686 L255.940714,104.258913 L255.940714,104.258913 Z"
       id="path6" />
  </g>
</svg>
