<svg width="195" height="245" viewBox="0 0 195 245" fill="none" xmlns="http://www.w3.org/2000/svg">
<path d="M184.178 114.365C181.289 111.425 177.252 109.873 173.127 110.097L123.204 112.853L150.678 81.8222C154.592 77.4019 155.71 71.5094 154.197 66.2441C153.398 62.636 151.195 59.3532 147.81 57.2557C147.706 57.1822 82.1373 19.4078 82.1373 19.4078C76.7832 16.3234 70.0365 17.0029 65.4161 21.0899L33.3866 49.4236C27.4854 54.6435 26.9686 63.6193 32.2326 69.4719C37.4969 75.3237 46.5482 75.8377 52.449 70.6159L76.7318 49.135L96.8062 60.6956L61.3717 100.717C46.6782 103.094 33.4577 109.808 23.0796 119.489L41.5838 137.84C49.9487 130.297 61.0553 125.693 73.2258 125.693C99.185 125.693 120.305 146.638 120.305 172.382C120.305 184.452 115.662 195.465 108.057 203.761L126.56 222.112C138.886 209.117 146.451 191.632 146.451 172.382C146.451 160.914 143.766 150.069 138.993 140.425L158.317 139.357L153.616 196.541C152.973 204.358 158.843 211.21 166.725 211.848C167.12 211.88 167.513 211.895 167.904 211.895C175.284 211.895 181.549 206.271 182.159 198.848L188.193 125.429C188.529 121.338 187.065 117.304 184.178 114.365Z" fill="black" fill-opacity="0.25"/>
<path d="M157.658 53.5376C170.894 53.5376 181.623 42.8964 181.623 29.769C181.623 16.6423 170.894 6 157.658 6C144.42 6 133.69 16.6423 133.69 29.769C133.69 42.8964 144.419 53.5376 157.658 53.5376Z" fill="black" fill-opacity="0.25"/>
<path d="M73.2261 219.071C47.2666 219.071 26.1466 198.126 26.1466 172.382C26.1466 162.68 29.1484 153.662 34.276 146.187L15.5721 127.639C5.82625 139.973 0 155.499 0 172.382C0 212.488 32.784 245 73.2261 245C90.2514 245 105.906 239.222 118.342 229.557L99.6388 211.009C92.1022 216.093 83.0089 219.071 73.2261 219.071Z" fill="black" fill-opacity="0.25"/>
<path d="M190.178 108.365C187.289 105.425 183.252 103.873 179.127 104.097L129.204 106.853L156.678 75.8222C160.592 71.4019 161.71 65.5094 160.197 60.2441C159.398 56.636 157.195 53.3532 153.81 51.2557C153.706 51.1822 88.1373 13.4078 88.1373 13.4078C82.7832 10.3234 76.0365 11.0029 71.4161 15.0899L39.3866 43.4236C33.4854 48.6436 32.9686 57.6193 38.2326 63.4719C43.4969 69.3237 52.5482 69.8377 58.449 64.6159L82.7318 43.135L102.806 54.6956L67.3717 94.7171C52.6782 97.0935 39.4577 103.808 29.0796 113.489L47.5838 131.84C55.9487 124.297 67.0553 119.693 79.2258 119.693C105.185 119.693 126.305 140.638 126.305 166.382C126.305 178.452 121.662 189.465 114.057 197.761L132.56 216.112C144.886 203.117 152.451 185.632 152.451 166.382C152.451 154.914 149.766 144.069 144.993 134.425L164.317 133.357L159.616 190.541C158.973 198.358 164.843 205.21 172.725 205.848C173.12 205.88 173.513 205.895 173.904 205.895C181.284 205.895 187.549 200.271 188.159 192.848L194.193 119.429C194.529 115.338 193.065 111.304 190.178 108.365Z" fill="white"/>
<path d="M163.658 47.5376C176.894 47.5376 187.623 36.8964 187.623 23.769C187.623 10.6423 176.894 0 163.658 0C150.42 0 139.69 10.6423 139.69 23.769C139.69 36.8964 150.419 47.5376 163.658 47.5376Z" fill="white"/>
<path d="M79.2261 213.071C53.2666 213.071 32.1466 192.126 32.1466 166.382C32.1466 156.68 35.1484 147.662 40.276 140.187L21.5721 121.639C11.8262 133.973 6 149.499 6 166.382C6 206.488 38.784 239 79.2261 239C96.2514 239 111.906 233.222 124.342 223.557L105.639 205.009C98.1022 210.093 89.0089 213.071 79.2261 213.071Z" fill="white"/>
</svg>
