<svg width="393" height="333" viewBox="0 0 393 333" fill="none" xmlns="http://www.w3.org/2000/svg">
<path d="M73.0446 17.1061C73.497 14.9993 76.503 14.9993 76.9554 17.1061L77.3802 19.0843C77.5454 19.8536 78.1464 20.4546 78.9157 20.6198L80.8939 21.0446C83.0007 21.497 83.0007 24.503 80.8939 24.9554L78.9157 25.3802C78.1464 25.5454 77.5454 26.1464 77.3802 26.9157L76.9554 28.8939C76.503 31.0007 73.497 31.0007 73.0446 28.8939L72.6198 26.9157C72.4546 26.1464 71.8536 25.5454 71.0843 25.3802L69.1061 24.9554C66.9993 24.503 66.9993 21.497 69.1061 21.0446L71.0843 20.6198C71.8536 20.4546 72.4546 19.8536 72.6198 19.0843L73.0446 17.1061Z" fill="#FDFDFD"/>
<path d="M17.5446 138.106C17.997 135.999 21.003 135.999 21.4554 138.106L22.6757 143.789C22.8409 144.558 23.4419 145.159 24.2112 145.324L29.8939 146.545C32.0007 146.997 32.0007 150.003 29.8939 150.455L24.2112 151.676C23.4419 151.841 22.8409 152.442 22.6757 153.211L21.4554 158.894C21.003 161.001 17.997 161.001 17.5446 158.894L16.3243 153.211C16.1591 152.442 15.5581 151.841 14.7888 151.676L9.10613 150.455C6.99933 150.003 6.99933 146.997 9.10613 146.545L14.7888 145.324C15.5581 145.159 16.1591 144.558 16.3243 143.789L17.5446 138.106Z" fill="#FDFDFD"/>
<path d="M281.545 311.106C281.997 308.999 285.003 308.999 285.455 311.106L285.969 313.496C286.134 314.265 286.735 314.866 287.504 315.031L289.894 315.545C292.001 315.997 292.001 319.003 289.894 319.455L287.504 319.969C286.735 320.134 286.134 320.735 285.969 321.504L285.455 323.894C285.003 326.001 281.997 326.001 281.545 323.894L281.031 321.504C280.866 320.735 280.265 320.134 279.496 319.969L277.106 319.455C274.999 319.003 274.999 315.997 277.106 315.545L279.496 315.031C280.265 314.866 280.866 314.265 281.031 313.496L281.545 311.106Z" fill="#FDFDFD"/>
<path d="M63.5269 258.909C63.8965 256.679 67.1035 256.679 67.4731 258.909L67.7533 260.601C67.8932 261.445 68.555 262.107 69.3995 262.247L71.0906 262.527C73.3214 262.896 73.3214 266.104 71.0906 266.473L69.3995 266.753C68.555 266.893 67.8932 267.555 67.7533 268.399L67.4731 270.091C67.1035 272.321 63.8965 272.321 63.5269 270.091L63.2467 268.399C63.1068 267.555 62.445 266.893 61.6005 266.753L59.9094 266.473C57.6786 266.104 57.6786 262.896 59.9094 262.527L61.6005 262.247C62.445 262.107 63.1068 261.445 63.2467 260.601L63.5269 258.909Z" fill="#FDFDFD"/>
<path d="M205.545 299.106C205.997 296.999 209.003 296.999 209.455 299.106L210.322 303.142C210.487 303.912 211.088 304.513 211.858 304.678L215.894 305.545C218.001 305.997 218.001 309.003 215.894 309.455L211.858 310.322C211.088 310.487 210.487 311.088 210.322 311.858L209.455 315.894C209.003 318.001 205.997 318.001 205.545 315.894L204.678 311.858C204.513 311.088 203.912 310.487 203.142 310.322L199.106 309.455C196.999 309.003 196.999 305.997 199.106 305.545L203.142 304.678C203.912 304.513 204.513 303.912 204.678 303.142L205.545 299.106Z" fill="#FDFDFD"/>
<path d="M368.545 197.106C368.997 194.999 372.003 194.999 372.455 197.106L374.206 205.258C374.371 206.028 374.972 206.629 375.742 206.794L383.894 208.545C386.001 208.997 386.001 212.003 383.894 212.455L375.742 214.206C374.972 214.371 374.371 214.972 374.206 215.742L372.455 223.894C372.003 226.001 368.997 226.001 368.545 223.894L366.794 215.742C366.629 214.972 366.028 214.371 365.258 214.206L357.106 212.455C354.999 212.003 354.999 208.997 357.106 208.545L365.258 206.794C366.028 206.629 366.629 206.028 366.794 205.258L368.545 197.106Z" fill="#FDFDFD"/>
<path d="M340.045 9.10613C340.497 6.99933 343.503 6.99933 343.955 9.10612L344.557 11.9075C344.722 12.6768 345.323 13.2778 346.093 13.443L348.894 14.0446C351.001 14.497 351.001 17.503 348.894 17.9554L346.093 18.557C345.323 18.7222 344.722 19.3232 344.557 20.0925L343.955 22.8939C343.503 25.0007 340.497 25.0007 340.045 22.8939L339.443 20.0925C339.278 19.3232 338.677 18.7222 337.907 18.557L335.106 17.9554C332.999 17.503 332.999 14.497 335.106 14.0446L337.907 13.443C338.677 13.2778 339.278 12.6768 339.443 11.9075L340.045 9.10613Z" fill="#FDFDFD"/>
<circle cx="210.5" cy="142.5" r="107.5" fill="#FCF8F8"/>
<circle cx="275" cy="148" r="11" fill="#D7D7D7"/>
<path d="M178 187C178 194.732 171.732 201 164 201C156.268 201 150 194.732 150 187C150 179.268 156.268 173 164 173C171.732 173 178 179.268 178 187Z" fill="#D7D7D7"/>
<circle cx="206" cy="75" r="14" fill="#D7D7D7"/>
<circle cx="150" cy="126" r="22" fill="#D7D7D7"/>
<circle cx="223" cy="221" r="11" fill="#D7D7D7"/>
<circle cx="214.5" cy="146.5" r="19.5" fill="#D7D7D7"/>
<path fill-rule="evenodd" clip-rule="evenodd" d="M227.505 161.252C231.638 157.677 234.252 152.394 234.252 146.5C234.252 135.73 225.522 127 214.752 127C208.859 127 203.576 129.615 200 133.748C203.419 130.789 207.877 129 212.752 129C223.522 129 232.252 137.73 232.252 148.5C232.252 153.376 230.463 157.834 227.505 161.252Z" fill="#B8B8B8"/>
<path fill-rule="evenodd" clip-rule="evenodd" d="M164.549 142.524C169.132 138.493 172.024 132.584 172.024 126C172.024 113.85 162.175 104 150.024 104C143.44 104 137.532 106.892 133.5 111.476C137.375 108.067 142.458 106 148.024 106C160.175 106 170.024 115.85 170.024 128C170.024 133.566 167.957 138.65 164.549 142.524Z" fill="#B8B8B8"/>
<path fill-rule="evenodd" clip-rule="evenodd" d="M214.698 85.8492C217.842 83.2819 219.849 79.3753 219.849 75C219.849 67.268 213.581 61 205.849 61C201.474 61 197.567 63.0071 195 66.1508C197.412 64.1813 200.493 63 203.849 63C211.581 63 217.849 69.268 217.849 77C217.849 80.3566 216.668 83.4374 214.698 85.8492Z" fill="#B8B8B8"/>
<path fill-rule="evenodd" clip-rule="evenodd" d="M172.698 197.849C175.842 195.282 177.849 191.375 177.849 187C177.849 179.268 171.581 173 163.849 173C159.474 173 155.567 175.007 153 178.151C155.412 176.181 158.493 175 161.849 175C169.581 175 175.849 181.268 175.849 189C175.849 192.357 174.668 195.437 172.698 197.849Z" fill="#B8B8B8"/>
<path fill-rule="evenodd" clip-rule="evenodd" d="M229.678 229.714C232.285 227.703 233.964 224.547 233.964 221C233.964 214.925 229.039 210 222.964 210C219.417 210 216.261 211.679 214.25 214.286C216.108 212.853 218.436 212 220.964 212C227.039 212 231.964 216.925 231.964 223C231.964 225.528 231.111 227.856 229.678 229.714Z" fill="#B8B8B8"/>
<path fill-rule="evenodd" clip-rule="evenodd" d="M281.678 156.714C284.285 154.703 285.964 151.547 285.964 148C285.964 141.925 281.039 137 274.964 137C271.417 137 268.261 138.679 266.25 141.286C268.108 139.853 270.436 139 272.964 139C279.039 139 283.964 143.925 283.964 150C283.964 152.528 283.111 154.856 281.678 156.714Z" fill="#B8B8B8"/>
<path fill-rule="evenodd" clip-rule="evenodd" d="M281.701 223.35C304.167 203.647 318.35 174.73 318.35 142.5C318.35 83.1294 270.221 35 210.85 35C178.62 35 149.703 49.1837 130 71.6496C148.918 55.0579 173.71 45 200.85 45C260.221 45 308.35 93.1294 308.35 152.5C308.35 179.641 298.293 204.432 281.701 223.35Z" fill="#D7D7D7"/>
</svg>
